<svg xmlns="http://www.w3.org/2000/svg" version="1.1" xmlns:xlink="http://www.w3.org/1999/xlink" xmlns:svgjs="http://svgjs.dev/svgjs" width="1500" height="1500" viewBox="0 0 1500 1500"><rect width="1500" height="1500" fill="#000000"></rect><g transform="matrix(0.6666666666666666,0,0,0.6666666666666666,250.12354303035403,201.00023030942305)"><svg viewBox="0 0 255 280" data-background-color="#0daa58" preserveAspectRatio="xMidYMid meet" height="1647" width="1500" xmlns="http://www.w3.org/2000/svg" xmlns:xlink="http://www.w3.org/1999/xlink"><g id="tight-bounds" transform="matrix(1,0,0,1,-0.03150347274026899,0.00005862956530222618)"><svg viewBox="0 0 255.06300694548057 280" height="280" width="255.06300694548057"><g><svg viewBox="0 0 278.2696 305.4754546066116" height="280" width="255.06300694548057"><g><svg viewBox="0 0 278.2696 305.4754546066116" height="305.4754546066116" width="278.2696"><g id="textblocktransform"><svg viewBox="0 0 278.2696 305.4754546066116" height="305.4754546066116" width="278.2696" id="textblock"><g><svg viewBox="0 0 278.2696 278.2696" height="278.2696" width="278.2696"><g transform="matrix(1,0,0,1,93.03796313694943,89.94321971048298)"><svg viewBox="0 0 92.19367372610117 98.38316057903407" height="98.38316057903407" width="92.19367372610117"><g id="icon-0"><svg xmlns="http://www.w3.org/2000/svg" xmlns:xlink="http://www.w3.org/1999/xlink" version="1.1" x="0" y="0" viewBox="0 0 93.80250325022983 100.1" style="enable-background:new 0 0 93.9 100;" xml:space="preserve" width="92.19367372610117" height="98.38316057903407" class="icon-xg-0" data-fill-palette-color="accent" id="xg-0"><g fill="#ecc2e6" data-fill-palette-color="accent"><path d="M85.8 23.3L85.8 23.3c-5.3-5.3-12.3-8.2-19.7-8.2 0 0 0 0 0 0-6.3 0-12.3 2.1-17.2 6 0.6-7.6 4.9-10.1 5.2-10.3 1-0.5 1.3-1.7 0.8-2.6-0.5-1-1.7-1.3-2.7-0.8-0.1 0.1-1.6 0.9-3.2 2.8-0.4-1.4-1.1-2.9-2.2-4.3C44.1 2.3 39.7 0.4 33.7 0c-0.6 0-1.1 0.2-1.5 0.6-0.4 0.4-0.6 1-0.6 1.5C32 8 34 12.4 37.4 15.2c2.7 2.2 5.8 2.8 7.9 2.9-0.2 0.9-0.3 1.9-0.4 3-4.9-3.9-10.9-6-17.2-6-7.4 0-14.4 2.9-19.7 8.2C2.9 28.5 0 35.5 0 42.9c0 10 4.3 19.6 11.7 26.3l33.9 30.4c0.4 0.3 0.8 0.5 1.3 0.5 0.5 0 0.9-0.2 1.3-0.5l33.9-30.3c7.5-6.7 11.7-16.3 11.7-26.3C93.9 35.5 91 28.5 85.8 23.3zM35.8 4.2c3.5 0.6 6.2 1.9 7.9 4 1.6 2 2 4.4 2.1 5.9-1.5-0.1-3.9-0.5-5.9-2.1C37.8 10.4 36.4 7.7 35.8 4.2zM79.5 66.2L46.9 95.4 14.4 66.2C7.7 60.3 3.9 51.8 3.9 42.9c0-6.4 2.5-12.3 7-16.9 4.5-4.5 10.5-7 16.8-7 6.4 0 12.3 2.5 16.8 7l1 1c0.8 0.8 2 0.8 2.8 0l1-1c4.5-4.5 10.5-7 16.8-7 0 0 0 0 0 0 6.4 0 12.3 2.5 16.8 7l0.1 0.1c4.5 4.5 7 10.5 7 16.8C90 51.8 86.2 60.3 79.5 66.2z" fill="#ffffff" data-fill-palette-color="accent"></path><path d="M78.8 30.2c-3.4-3.4-7.9-5.2-12.6-5.2-1.1 0-2 0.9-2 2 0 1.1 0.9 2 2 2 3.7 0 7.2 1.5 9.9 4.1 2.7 2.7 4.1 6.2 4.1 9.9 0 1.1 0.9 2 2 2 1.1 0 2-0.9 2-2C84.1 38.1 82.2 33.6 78.8 30.2z" fill="#ffffff" data-fill-palette-color="accent"></path></g></svg></g></svg></g><g id="text-0"><path d="M31.242 105.453v0c-0.132 0.466-0.395 0.835-0.79 1.106v0c-0.135 0.087-0.282 0.159-0.441 0.216v0c-0.126 0.062-0.262 0.11-0.407 0.144v0l-0.617 0.114c-0.338 0.045-0.798 0.091-1.381 0.136v0l-1.884 0.163c-1.08 0.064-3.534 0.164-7.364 0.301-3.83 0.137-6.09 0.223-6.782 0.259v0c-0.516 0.012-0.97-0.164-1.363-0.531-0.387-0.364-0.592-0.806-0.617-1.325-0.023-0.526 0.148-0.983 0.512-1.369 0.36-0.395 0.805-0.61 1.335-0.646v0c0.599-0.012 2.849-0.087 6.75-0.227 3.892-0.136 6.324-0.23 7.295-0.283v0l0.368-0.031c-0.135-0.158-0.281-0.303-0.44-0.435-0.156-0.138-0.279-0.25-0.368-0.336-0.098-0.083-0.189-0.153-0.275-0.21v0l-0.124-0.127c-0.324-0.3-1.75-1.514-4.278-3.642-2.521-2.126-4.371-3.839-5.55-5.14v0c-0.357-0.389-0.524-0.852-0.501-1.39 0.015-0.534 0.22-0.979 0.615-1.334 0.393-0.349 0.856-0.515 1.391-0.5 0.538 0.024 0.982 0.232 1.33 0.624v0c1.144 1.261 2.854 2.842 5.13 4.743 2.274 1.908 3.763 3.171 4.468 3.792v0l1.87 1.776c0.565 0.579 1.014 1.087 1.348 1.524v0c0.244 0.329 0.426 0.636 0.545 0.922v0c0.284 0.581 0.359 1.149 0.225 1.706z" fill="#ffffff" data-fill-palette-color="primary"></path><path d="M45.656 77.319v0c-1.156 1.507-2.393 2.669-3.71 3.487-1.312 0.821-2.582 1.269-3.81 1.342-1.222 0.077-2.264 0.028-3.126-0.149-0.871-0.175-1.663-0.456-2.376-0.843-0.717-0.382-1.568-0.993-2.553-1.833v0c-0.794-0.744-1.469-1.648-2.026-2.713-0.548-1.066-0.902-2.23-1.064-3.492-0.162-1.263-0.053-2.584 0.325-3.964 0.384-1.376 1.077-2.655 2.079-3.835v0c0.976-1.141 2.016-1.973 3.12-2.495 1.103-0.531 2.265-0.835 3.488-0.912v0c1.04-0.079 1.77-0.062 2.188 0.05 0.419 0.112 0.81 0.218 1.175 0.317 0.36 0.105 0.67 0.196 0.929 0.273 0.259 0.077 0.515 0.164 0.769 0.261 0.263 0.096 0.55 0.232 0.862 0.408v0c0.423 0.25 0.748 0.574 0.976 0.973 0.228 0.399 0.322 0.832 0.281 1.299v0c-0.077 0.355-0.222 0.692-0.435 1.012v0l-3.553 5.526c-2.54 3.857-3.777 5.808-3.711 5.853v0l-0.066 0.099c1.274 0.443 2.516 0.431 3.727-0.036 1.209-0.476 2.379-1.448 3.509-2.916v0c0.599-0.803 1.019-1.523 1.26-2.159v0c0.241-0.731 0.386-1.284 0.436-1.656 0.04-0.371 0.081-0.838 0.121-1.401v0c0.119-0.502 0.412-0.892 0.876-1.171 0.456-0.278 0.937-0.355 1.445-0.232 0.502 0.119 0.885 0.399 1.149 0.838 0.268 0.434 0.379 0.913 0.331 1.439v0c-0.035 0.47-0.105 0.934-0.209 1.389-0.099 0.459-0.289 1.102-0.568 1.927-0.278 0.834-0.89 1.939-1.839 3.314zM32.328 75.827v0c0.761-1.285 2.836-4.54 6.224-9.766v0c-0.768-0.233-1.58-0.329-2.436-0.287v0c-1.551 0.2-2.82 0.879-3.807 2.037v0c-1.053 1.209-1.547 2.56-1.483 4.052 0.07 1.496 0.571 2.817 1.502 3.964z" fill="#ffffff" data-fill-palette-color="primary"></path><path d="M72.333 59.621v0c-1.049 1.059-2.247 1.853-3.594 2.384-1.352 0.535-2.742 0.65-4.17 0.346v0c-0.535-0.12-1.092-0.353-1.669-0.698-0.582-0.35-0.928-0.791-1.038-1.322-0.111-0.522-0.023-1.004 0.264-1.445 0.277-0.442 0.681-0.718 1.212-0.829 0.526-0.106 1.006-0.026 1.44 0.242v0c0.168 0.127 0.393 0.297 0.676 0.508 0.287 0.217 0.723 0.296 1.306 0.238v0c1.146-0.43 2.231-1.112 3.255-2.046v0c0.928-0.853 1.496-1.675 1.703-2.466 0.199-0.792 0.167-1.481-0.093-2.067v0c-0.362-0.83-1.099-2.021-2.209-3.572v0c-0.082 1.413-0.811 2.835-2.187 4.266v0c-1.24 1.151-2.551 1.95-3.934 2.397-1.392 0.447-2.716 0.532-3.971 0.257-1.26-0.28-2.433-0.786-3.518-1.517v0c-1.051-0.691-2.125-1.762-3.22-3.213v0c-1.664-2.289-2.285-4.735-1.863-7.338v0c0.565-2.792 2.217-5.011 4.956-6.655v0c1.129-0.45 2.122-0.686 2.98-0.708v0c-0.642-0.802-0.674-1.594-0.096-2.378v0c0.437-0.438 0.904-0.65 1.401-0.636 0.497 0.014 0.94 0.195 1.33 0.542v0c2.235 2.206 4.829 5.016 7.78 8.43v0c1.674 1.942 2.997 3.627 3.967 5.053v0c1.497 2.092 2.274 3.947 2.33 5.565 0.052 1.612-0.191 2.876-0.729 3.789-0.542 0.909-1.312 1.866-2.309 2.873zM64.491 50.333v0c0.741-0.591 1.228-1.149 1.461-1.675v0c0.835-1.312 0.704-2.797-0.393-4.456v0c-0.878-1.236-1.86-2.301-2.946-3.197v0c-0.706-0.549-1.598-0.789-2.676-0.719v0c-0.66 0.019-1.334 0.238-2.023 0.654v0c-1.795 1.047-2.802 2.3-3.019 3.758v0c-0.253 1.323 0.09 2.66 1.03 4.009v0c1.288 1.731 2.693 2.743 4.215 3.036v0c1.525 0.256 2.976-0.214 4.351-1.41z" fill="#ffffff" data-fill-palette-color="primary"></path><path d="M95.699 36.946v0c-1.789 0.639-3.458 0.944-5.009 0.916-1.548-0.022-2.857-0.335-3.928-0.939-1.068-0.598-1.917-1.205-2.545-1.821-0.637-0.619-1.15-1.285-1.539-1.997-0.395-0.71-0.778-1.685-1.15-2.925v0c-0.263-1.056-0.34-2.182-0.23-3.378 0.118-1.192 0.452-2.363 1.001-3.511 0.549-1.148 1.357-2.199 2.423-3.154 1.069-0.948 2.345-1.646 3.827-2.093v0c1.439-0.429 2.764-0.564 3.974-0.403 1.214 0.152 2.356 0.527 3.425 1.125v0c0.917 0.498 1.521 0.908 1.811 1.229 0.291 0.321 0.563 0.623 0.815 0.904 0.246 0.283 0.457 0.528 0.632 0.733 0.176 0.205 0.344 0.418 0.504 0.637 0.169 0.223 0.337 0.493 0.504 0.811v0c0.219 0.439 0.317 0.888 0.292 1.347-0.025 0.459-0.181 0.873-0.469 1.243v0c-0.257 0.256-0.562 0.461-0.914 0.614v0l-5.984 2.715c-4.226 1.863-6.323 2.83-6.291 2.903v0l-0.11 0.048c0.83 1.063 1.88 1.727 3.15 1.992 1.274 0.256 2.784 0.074 4.531-0.547v0c0.939-0.35 1.682-0.726 2.229-1.129v0c0.599-0.484 1.021-0.869 1.264-1.156 0.235-0.29 0.523-0.66 0.862-1.11v0c0.373-0.357 0.83-0.526 1.372-0.509 0.533 0.014 0.98 0.211 1.339 0.589 0.357 0.373 0.527 0.815 0.511 1.328-0.01 0.51-0.177 0.973-0.503 1.388v0c-0.285 0.376-0.594 0.727-0.929 1.053-0.333 0.332-0.84 0.769-1.523 1.311-0.686 0.55-1.8 1.146-3.342 1.786zM85.312 28.463v0c1.336-0.666 4.845-2.276 10.527-4.828v0c-0.519-0.613-1.149-1.134-1.891-1.563v0c-1.412-0.673-2.846-0.791-4.304-0.354v0c-1.541 0.445-2.689 1.311-3.444 2.6-0.753 1.295-1.049 2.676-0.888 4.145z" fill="#ffffff" data-fill-palette-color="primary"></path><path d="M121.852 27.128v0c0.074 0.539-0.045 1.02-0.357 1.442-0.312 0.422-0.734 0.67-1.266 0.743-0.532 0.073-1.01-0.047-1.433-0.359-0.429-0.311-0.68-0.732-0.752-1.265v0c-0.523-3.374-0.948-5.93-1.273-7.669-0.325-1.739-0.837-4.33-1.535-7.772-0.698-3.442-1.21-6.033-1.536-7.771v0c-0.1-0.534-0.002-1.018 0.295-1.451 0.296-0.433 0.712-0.699 1.246-0.799 0.528-0.099 1.008 0 1.441 0.297 0.433 0.296 0.699 0.712 0.799 1.245v0c0.325 1.739 0.813 4.203 1.464 7.391 0.652 3.195 1.215 6.096 1.689 8.703 0.476 2.614 0.882 5.036 1.218 7.265z" fill="#ffffff" data-fill-palette-color="primary"></path><path d="M138.429 25.918v0c-0.062-1.921-0.08-4.87-0.054-8.846 0.033-3.976 0.045-6.577 0.035-7.802v0c-0.005-0.543 0.177-1.002 0.545-1.377 0.368-0.374 0.824-0.563 1.367-0.568 0.537-0.004 0.992 0.177 1.366 0.546 0.374 0.368 0.563 0.824 0.568 1.367v0c0.01 1.226-0.001 3.813-0.035 7.763-0.027 3.949-0.009 6.888 0.054 8.815v0c0.004 0.537-0.171 0.999-0.526 1.386-0.355 0.387-0.8 0.583-1.336 0.588-0.537 0.004-1.002-0.171-1.396-0.525-0.387-0.355-0.583-0.804-0.588-1.347zM141.797 0.664v0c0.441 0.427 0.664 0.962 0.669 1.604 0.005 0.643-0.209 1.185-0.642 1.626-0.427 0.434-0.962 0.654-1.605 0.659-0.643 0.005-1.185-0.205-1.625-0.632-0.441-0.434-0.664-0.972-0.67-1.615-0.005-0.643 0.209-1.181 0.643-1.615 0.434-0.441 0.978-0.671 1.634-0.69 0.649-0.019 1.181 0.202 1.596 0.663z" fill="#ffffff" data-fill-palette-color="primary"></path><path d="M166.904 31.525v0c-1.435-0.295-2.774-0.861-4.02-1.697-1.24-0.829-2.187-1.843-2.84-3.043v0c-0.663-1.249-0.975-2.64-0.937-4.173 0.044-1.525 0.344-2.921 0.901-4.188 0.563-1.266 1.296-2.442 2.199-3.53v0c0.706-0.813 1.493-1.508 2.363-2.087 0.864-0.58 1.823-1.023 2.877-1.33 1.052-0.3 2.116-0.35 3.191-0.149 1.069 0.199 2.161 0.689 3.276 1.47v0c0.58 0.443 1.135 1.067 1.667 1.872v0l0.933 1.473c0.328 0.413 0.456 0.887 0.383 1.421-0.066 0.535-0.311 0.959-0.734 1.271-0.423 0.312-0.906 0.435-1.447 0.368-0.535-0.066-0.951-0.316-1.248-0.749v0c-0.187-0.225-0.395-0.523-0.624-0.895v0l-0.496-0.783c-0.271-0.428-0.508-0.715-0.713-0.863v0c-1.012-0.757-2.089-0.993-3.234-0.707-1.143 0.28-2.228 1.014-3.255 2.202v0c-1.065 1.234-1.748 2.551-2.049 3.951-0.302 1.406-0.184 2.604 0.353 3.594v0c0.335 0.625 0.889 1.195 1.664 1.708 0.779 0.521 1.644 0.889 2.594 1.103v0c1.938 0.381 3.331-0.029 4.179-1.231v0l0.002-0.193 0.246-1.096c0.144-0.518 0.447-0.901 0.911-1.15 0.463-0.249 0.955-0.305 1.474-0.168 0.524 0.145 0.911 0.449 1.16 0.913 0.249 0.463 0.301 0.957 0.156 1.481v0l-0.185 0.825c-0.114 0.626-0.324 1.156-0.633 1.589v0c-0.901 1.319-2.089 2.196-3.566 2.632-1.475 0.429-2.991 0.482-4.548 0.159z" fill="#ffffff" data-fill-palette-color="primary"></path><path d="M188.777 37.067v0c0.776-1.758 2.038-4.423 3.785-7.995 1.753-3.569 2.89-5.908 3.412-7.017v0c0.231-0.492 0.594-0.826 1.088-1.004 0.494-0.178 0.986-0.151 1.478 0.08 0.486 0.229 0.817 0.59 0.995 1.084 0.178 0.494 0.151 0.986-0.08 1.478v0c-0.522 1.109-1.654 3.436-3.396 6.981-1.736 3.548-2.993 6.204-3.772 7.968v0c-0.229 0.486-0.587 0.826-1.074 1.022-0.487 0.195-0.974 0.179-1.459-0.05-0.486-0.229-0.829-0.588-1.031-1.078-0.195-0.487-0.177-0.977 0.054-1.469zM202.756 15.767v0c0.212 0.576 0.182 1.155-0.092 1.736-0.274 0.582-0.701 0.977-1.283 1.186-0.573 0.206-1.15 0.173-1.732-0.101-0.582-0.274-0.978-0.698-1.191-1.274-0.209-0.582-0.177-1.164 0.097-1.745 0.274-0.582 0.7-0.974 1.279-1.178 0.582-0.209 1.172-0.181 1.771 0.087 0.593 0.265 0.977 0.694 1.151 1.289z" fill="#ffffff" data-fill-palette-color="primary"></path><path d="M213.28 55.083v0c-3.16-1.468-4.85-3.685-5.071-6.65v0c-0.223-2.313 0.329-4.611 1.656-6.891v0c1.058-1.784 2.463-3.159 4.217-4.125v0c2.196-1.266 4.425-1.718 6.686-1.355v0c0.466 0.075 0.971 0.265 1.515 0.572v0c0.021 0.017 0.169 0.118 0.444 0.303v0c0.12 0.062 0.217 0.105 0.29 0.13v0c0.35 0.177 0.626 0.448 0.828 0.812v0c0.083 0.066 0.27 0.224 0.562 0.474 0.292 0.25 0.483 0.419 0.574 0.509 0.099 0.088 0.261 0.246 0.485 0.475 0.229 0.234 0.405 0.433 0.527 0.599v0l0.408 0.668c0.176 0.268 0.326 0.553 0.45 0.855 0.128 0.297 0.257 0.629 0.388 0.996v0c0.598 1.918 0.512 3.875-0.258 5.87-0.766 1.991-1.663 3.382-2.691 4.173v0c-1.04 0.942-2.162 1.696-3.366 2.26-1.205 0.565-2.501 0.883-3.888 0.955-1.388 0.072-2.64-0.139-3.756-0.63zM214.845 51.207v0c0.96 0.571 2.054 0.714 3.28 0.43 1.227-0.284 2.276-0.782 3.149-1.494 0.882-0.712 1.568-1.716 2.058-3.011 0.49-1.295 0.559-2.461 0.207-3.496v0c-0.09-0.334-0.175-0.593-0.258-0.778-0.091-0.183-0.21-0.375-0.354-0.575-0.15-0.205-0.28-0.35-0.389-0.437-0.114-0.091-0.344-0.287-0.689-0.587-0.346-0.31-0.651-0.587-0.914-0.831v0c-0.062-0.05-0.124-0.116-0.185-0.198v0c-0.239-0.157-0.369-0.244-0.39-0.26v0l-0.259-0.105c-1.261-0.226-2.548 0.002-3.863 0.683-1.31 0.676-2.31 1.654-3 2.933v0c-0.873 1.541-1.207 2.965-1.004 4.272v0c0.216 1.418 1.087 2.57 2.611 3.454z" fill="#ffffff" data-fill-palette-color="primary"></path><path d="M236.54 82.267v0c-0.249-0.392-0.339-0.825-0.27-1.298 0.064-0.478 0.406-0.968 1.025-1.47v0c-1.517-0.363-2.768-0.966-3.756-1.807v0c-1.418-1.192-2.135-2.697-2.149-4.513v0c-0.004-1.767 0.713-3.672 2.151-5.715v0c0.505-0.705 1.064-1.375 1.677-2.01v0c0.643-0.649 1.381-1.264 2.212-1.844 0.831-0.58 1.508-1.041 2.029-1.383 0.527-0.345 1.263-0.796 2.21-1.353 0.945-0.547 1.541-0.893 1.788-1.038v0c0.442-0.26 0.918-0.329 1.429-0.206 0.517 0.118 0.914 0.404 1.191 0.858 0.273 0.448 0.348 0.929 0.226 1.441-0.122 0.512-0.407 0.916-0.854 1.212v0c-0.328 0.203-0.965 0.57-1.913 1.103-0.938 0.534-1.626 0.95-2.064 1.249-0.433 0.294-1.003 0.687-1.711 1.178-0.702 0.488-1.296 0.979-1.781 1.474-0.483 0.486-0.926 0.999-1.329 1.54v0c-0.942 1.369-1.387 2.573-1.335 3.613v0c0.02 0.426 0.27 0.973 0.749 1.64v0c0.787 0.789 1.567 1.326 2.342 1.61 0.765 0.283 1.988 0.185 3.667-0.294v0c2.804-1.946 5.595-3.994 8.375-6.144v0c0.421-0.334 0.895-0.463 1.424-0.385 0.529 0.077 0.956 0.321 1.282 0.731 0.331 0.415 0.457 0.887 0.38 1.416-0.077 0.529-0.318 0.954-0.723 1.277v0c-4.799 3.688-9.338 6.928-13.614 9.719v0c-0.435 0.28-0.914 0.362-1.437 0.248-0.522-0.114-0.929-0.397-1.221-0.849z" fill="#ffffff" data-fill-palette-color="primary"></path><path d="M245.79 101.792v0c-0.333-1.901-0.075-3.452 0.775-4.652v0c0.366-0.568 0.942-1.09 1.729-1.564v0l0.741-0.436c0.225-0.137 0.402-0.254 0.529-0.349v0c0.401-0.314 0.864-0.427 1.388-0.342 0.524 0.086 0.932 0.347 1.223 0.785 0.3 0.441 0.418 0.916 0.355 1.425-0.061 0.515-0.309 0.932-0.743 1.251v0c-0.235 0.169-0.508 0.349-0.821 0.538v0c-0.116 0.07-0.224 0.13-0.325 0.181-0.101 0.051-0.273 0.162-0.514 0.333v0c-0.287 0.181-0.491 0.445-0.613 0.791v0c-0.165 0.383-0.177 0.877-0.037 1.482v0c0.155 1.036 0.551 2.066 1.188 3.09v0c0.634 0.997 1.291 1.715 1.97 2.153v0c0.544 0.297 1.005 0.335 1.383 0.115v0c0.653-0.32 1.008-0.927 1.065-1.821v0c0.045-0.559-0.116-1.916-0.484-4.072v0c-0.346-2.249-0.35-3.924-0.015-5.024v0c0.612-2.016 2.186-3.168 4.724-3.456v0c1.474-0.151 2.718 0.183 3.731 1.001 1.019 0.816 1.795 1.854 2.326 3.113v0c0.441 1.067 0.714 2.215 0.819 3.445 0.099 1.232 0.026 2.34-0.219 3.322v0c-0.097 0.338-0.224 0.697-0.383 1.078-0.162 0.39-0.35 0.778-0.563 1.164-0.211 0.393-0.321 0.616-0.329 0.669v0c-0.229 0.498-0.58 0.832-1.054 1.003-0.468 0.168-0.94 0.138-1.417-0.092-0.475-0.223-0.801-0.581-0.979-1.073-0.177-0.492-0.163-0.98 0.043-1.463v0c0.131-0.322 0.271-0.647 0.42-0.976v0l0.435-0.727c0.067-0.186 0.128-0.398 0.183-0.636v0c0.121-0.565 0.153-1.246 0.099-2.043-0.055-0.797-0.221-1.54-0.497-2.23v0c-0.535-1.251-1.246-1.826-2.133-1.725v0c-0.945 0.094-1.487 0.37-1.624 0.829v0c-0.154 0.549-0.117 1.641 0.114 3.276v0c0.42 2.377 0.597 4.042 0.532 4.995v0c-0.179 2.297-1.209 3.936-3.088 4.917v0c-1.536 0.8-3.153 0.7-4.852-0.302v0c-1.282-0.763-2.392-1.917-3.328-3.459v0c-0.934-1.459-1.519-2.964-1.754-4.514z" fill="#ffffff" data-fill-palette-color="primary"></path><path d="M11.892 186.729v0c-0.182-0.449-0.202-0.904-0.06-1.367v0c0.053-0.151 0.125-0.299 0.216-0.442v0c0.062-0.126 0.142-0.249 0.242-0.367v0l0.408-0.465c0.245-0.245 0.584-0.565 1.016-0.959v0l1.394-1.298c0.813-0.713 2.694-2.305 5.643-4.774 2.952-2.463 4.689-3.921 5.213-4.374v0c0.406-0.328 0.873-0.468 1.402-0.418 0.535 0.048 0.972 0.269 1.31 0.664 0.341 0.401 0.488 0.869 0.44 1.404-0.048 0.535-0.267 0.978-0.658 1.329v0c-0.472 0.379-2.207 1.826-5.204 4.34-3.006 2.51-4.875 4.083-5.609 4.721v0l-0.272 0.25c0.204 0.042 0.408 0.067 0.614 0.073 0.208 0.013 0.373 0.026 0.497 0.04 0.128 0.005 0.243 0.004 0.346-0.003v0l0.176 0.024c0.447 0.036 2.325 0.12 5.635 0.251 3.308 0.126 5.829 0.339 7.564 0.64v0c0.523 0.094 0.94 0.36 1.252 0.8 0.312 0.439 0.424 0.919 0.337 1.44-0.096 0.516-0.363 0.934-0.8 1.252-0.439 0.312-0.917 0.42-1.434 0.324v0c-1.683-0.291-4.011-0.49-6.983-0.598-2.972-0.108-4.931-0.192-5.876-0.253v0l-2.577-0.251c-0.801-0.11-1.471-0.234-2.008-0.372v0c-0.389-0.112-0.718-0.244-0.988-0.396v0c-0.589-0.288-1.001-0.693-1.236-1.215z" fill="#ffffff" data-fill-palette-color="primary"></path><path d="M28.333 219.786v0c-0.95-1.652-1.55-3.243-1.798-4.774-0.252-1.536-0.178-2.888 0.222-4.055 0.399-1.158 0.846-2.105 1.342-2.843 0.505-0.735 1.072-1.36 1.701-1.875 0.632-0.509 1.525-1.057 2.679-1.643v0c1.003-0.454 2.103-0.734 3.299-0.839 1.2-0.1 2.414 0.019 3.642 0.355 1.231 0.342 2.413 0.955 3.545 1.84 1.132 0.886 2.052 2.02 2.76 3.404v0c0.678 1.34 1.048 2.622 1.109 3.848 0.061 1.226-0.109 2.422-0.509 3.589v0c-0.327 0.991-0.623 1.658-0.887 2.002-0.265 0.344-0.515 0.666-0.753 0.968-0.235 0.292-0.438 0.543-0.609 0.752-0.171 0.21-0.353 0.414-0.545 0.615-0.184 0.202-0.42 0.415-0.709 0.64v0c-0.388 0.29-0.812 0.466-1.273 0.527-0.456 0.057-0.894-0.021-1.315-0.234v0c-0.292-0.211-0.545-0.477-0.758-0.797v0l-3.761-5.424c-2.592-3.838-3.918-5.737-3.979-5.697v0l-0.067-0.099c-0.904 1.009-1.371 2.165-1.402 3.468-0.025 1.299 0.421 2.757 1.341 4.374v0c0.511 0.862 1.018 1.527 1.522 1.996v0c0.586 0.509 1.04 0.855 1.362 1.039 0.325 0.189 0.741 0.406 1.246 0.65v0c0.421 0.309 0.671 0.731 0.75 1.268 0.079 0.537-0.036 1.015-0.344 1.436-0.303 0.417-0.708 0.664-1.216 0.739-0.507 0.075-0.997-0.008-1.469-0.25v0c-0.421-0.213-0.822-0.456-1.202-0.728-0.38-0.272-0.902-0.696-1.566-1.273-0.664-0.577-1.449-1.57-2.358-2.979zM34.856 208.016v0c0.893 1.196 3.109 4.374 6.645 9.534v0c0.511-0.619 0.912-1.337 1.204-2.153v0c0.411-1.509 0.273-2.946-0.414-4.312v0c-0.715-1.442-1.777-2.419-3.185-2.929-1.411-0.516-2.828-0.563-4.25-0.14z" fill="#ffffff" data-fill-palette-color="primary"></path><path d="M48.98 253.629v0c-1.221-0.865-2.21-1.917-2.969-3.155-0.754-1.243-1.102-2.599-1.042-4.066v0c0.029-0.548 0.167-1.138 0.414-1.77 0.247-0.632 0.624-1.047 1.129-1.245 0.5-0.202 0.992-0.199 1.475 0.009 0.487 0.203 0.83 0.557 1.028 1.062 0.193 0.501 0.192 0.99-0.003 1.467v0c-0.092 0.191-0.221 0.442-0.388 0.753-0.166 0.32-0.168 0.764-0.007 1.333v0c0.616 1.057 1.471 2.017 2.565 2.879v0c0.996 0.771 1.904 1.191 2.723 1.258 0.819 0.067 1.496-0.077 2.03-0.433v0c0.762-0.502 1.814-1.43 3.157-2.785v0c-1.407 0.157-2.933-0.325-4.581-1.446v0c-1.348-1.033-2.359-2.198-3.032-3.496-0.678-1.292-0.983-2.585-0.914-3.879 0.06-1.293 0.359-2.537 0.897-3.73v0c0.503-1.162 1.383-2.405 2.639-3.729v0c1.982-2.03 4.297-3.058 6.947-3.085v0c2.853 0.092 5.322 1.352 7.409 3.781v0c0.638 1.042 1.038 1.986 1.199 2.832v0c0.683-0.768 1.463-0.933 2.342-0.494v0c0.505 0.357 0.793 0.782 0.863 1.274 0.066 0.498-0.038 0.969-0.311 1.415v0c-1.803 2.579-4.149 5.615-7.036 9.11v0c-1.638 1.982-3.08 3.574-4.328 4.775v0c-1.815 1.832-3.517 2.915-5.106 3.246-1.59 0.323-2.879 0.293-3.866-0.088-0.996-0.381-2.074-0.979-3.234-1.793zM56.845 244.309v0c0.707 0.631 1.341 1.015 1.903 1.15v0c1.439 0.607 2.885 0.228 4.34-1.136v0c1.08-1.074 1.97-2.226 2.669-3.457v0c0.427-0.784 0.514-1.703 0.26-2.758v0c-0.13-0.647-0.458-1.275-0.985-1.885v0c-1.34-1.607-2.749-2.393-4.227-2.357v0c-1.352-0.031-2.618 0.535-3.799 1.697v0c-1.494 1.565-2.256 3.125-2.283 4.679v0c0 1.552 0.707 2.907 2.122 4.067z" fill="#ffffff" data-fill-palette-color="primary"></path><path d="M87.456 267.71v0c-1.695-0.872-3.062-1.883-4.101-3.034-1.045-1.154-1.717-2.329-2.014-3.527-0.294-1.189-0.432-2.227-0.415-3.116 0.025-0.892 0.162-1.724 0.411-2.497 0.255-0.771 0.707-1.715 1.358-2.834v0c0.596-0.926 1.368-1.758 2.317-2.495 0.954-0.735 2.038-1.294 3.251-1.678 1.22-0.381 2.545-0.507 3.977-0.378 1.432 0.129 2.82 0.583 4.165 1.361v0c1.297 0.757 2.303 1.634 3.02 2.631 0.716 0.997 1.223 2.094 1.52 3.291v0c0.263 1.009 0.377 1.73 0.341 2.162-0.036 0.432-0.071 0.839-0.107 1.221-0.039 0.373-0.073 0.694-0.103 0.963-0.03 0.269-0.071 0.54-0.125 0.813-0.045 0.27-0.127 0.577-0.248 0.921v0c-0.168 0.454-0.429 0.832-0.784 1.134-0.352 0.295-0.762 0.468-1.231 0.517v0c-0.36-0.019-0.716-0.105-1.069-0.258v0l-6.103-2.515c-4.26-1.818-6.405-2.693-6.433-2.626v0l-0.11-0.047c-0.212 1.338 0.023 2.563 0.704 3.674 0.684 1.105 1.85 2.087 3.5 2.947v0c0.897 0.447 1.684 0.73 2.361 0.85v0c0.769 0.109 1.338 0.154 1.708 0.133 0.376-0.018 0.842-0.061 1.4-0.13v0c0.521 0.031 0.96 0.25 1.318 0.658 0.358 0.408 0.521 0.872 0.49 1.394-0.028 0.515-0.235 0.942-0.62 1.28-0.385 0.339-0.842 0.534-1.37 0.587v0c-0.469 0.049-0.937 0.063-1.405 0.041-0.467-0.022-1.136-0.095-2.006-0.22-0.87-0.125-2.069-0.532-3.597-1.223zM86.548 254.285v0c1.4 0.52 4.985 1.987 10.755 4.402v0c0.093-0.797 0.041-1.618-0.157-2.462v0c-0.473-1.491-1.369-2.623-2.687-3.397v0c-1.383-0.824-2.805-1.068-4.265-0.732-1.466 0.332-2.681 1.062-3.646 2.189z" fill="#ffffff" data-fill-palette-color="primary"></path><path d="M118.814 274.877v0c-0.125 0.523-0.409 0.928-0.854 1.215-0.444 0.281-0.93 0.359-1.459 0.233-0.523-0.125-0.928-0.409-1.215-0.854-0.281-0.444-0.359-0.93-0.233-1.459v0c0.732-3.341 1.261-5.885 1.588-7.631 0.326-1.746 0.787-4.356 1.382-7.83 0.595-3.475 1.056-6.085 1.382-7.831v0c0.1-0.534 0.366-0.949 0.799-1.246 0.439-0.295 0.923-0.394 1.451-0.295 0.534 0.1 0.949 0.366 1.246 0.799 0.297 0.433 0.395 0.916 0.295 1.451v0c-0.326 1.746-0.763 4.229-1.311 7.449-0.548 3.221-1.073 6.139-1.576 8.755-0.502 2.616-1.001 5.03-1.495 7.244z" fill="#ffffff" data-fill-palette-color="primary"></path><path d="M138.288 276.365v0c-0.03-1.935 0.001-4.894 0.094-8.875 0.1-3.988 0.155-6.602 0.165-7.841v0c0.004-0.537 0.194-0.989 0.568-1.357 0.381-0.375 0.84-0.56 1.376-0.555 0.543 0.005 0.999 0.197 1.367 0.578 0.368 0.374 0.55 0.83 0.545 1.366v0c-0.01 1.239-0.065 3.839-0.164 7.801-0.093 3.962-0.121 6.907-0.084 8.836v0c-0.004 0.537-0.191 0.999-0.559 1.386-0.361 0.381-0.813 0.57-1.356 0.566-0.537-0.004-0.996-0.187-1.377-0.549-0.388-0.368-0.58-0.82-0.575-1.356zM142.088 251.071v0c0.434 0.441 0.648 0.986 0.642 1.635-0.005 0.643-0.229 1.181-0.669 1.615-0.441 0.434-0.983 0.648-1.626 0.642-0.643-0.005-1.181-0.229-1.615-0.669-0.434-0.441-0.648-0.983-0.642-1.626 0.005-0.649 0.229-1.191 0.67-1.624 0.441-0.434 0.989-0.651 1.645-0.652 0.656-0.008 1.188 0.219 1.595 0.679z" fill="#ffffff" data-fill-palette-color="primary"></path><path d="M171.419 274.112v0c-1.423 0.347-2.879 0.409-4.369 0.187-1.488-0.216-2.785-0.729-3.891-1.54v0c-1.135-0.852-2.013-1.979-2.634-3.382-0.621-1.402-0.948-2.799-0.982-4.19-0.034-1.391 0.124-2.772 0.476-4.141v0c0.295-1.044 0.709-2.013 1.242-2.907 0.538-0.902 1.221-1.714 2.05-2.437 0.821-0.728 1.761-1.231 2.819-1.509 1.058-0.278 2.261-0.304 3.609-0.077v0c0.715 0.159 1.485 0.488 2.31 0.989v0l1.483 0.93c0.473 0.233 0.792 0.61 0.956 1.13 0.169 0.512 0.13 1.003-0.117 1.473-0.256 0.465-0.639 0.782-1.151 0.951-0.52 0.164-1.007 0.114-1.46-0.151v0c-0.265-0.124-0.581-0.304-0.947-0.541v0l-0.784-0.496c-0.434-0.269-0.776-0.43-1.025-0.483v0c-1.243-0.244-2.321 0.005-3.235 0.747-0.912 0.748-1.58 1.883-2.006 3.404v0c-0.435 1.571-0.488 3.057-0.16 4.457 0.33 1.406 0.949 2.442 1.859 3.107v0c0.572 0.428 1.32 0.709 2.247 0.841 0.926 0.132 1.867 0.09 2.824-0.125v0c1.923-0.479 3.009-1.447 3.26-2.902v0l-0.081-0.176-0.246-1.096c-0.093-0.536 0.02-1.016 0.339-1.441 0.312-0.423 0.733-0.684 1.26-0.782 0.536-0.093 1.016 0.016 1.439 0.329 0.431 0.317 0.693 0.741 0.785 1.27v0l0.187 0.834c0.167 0.621 0.203 1.19 0.109 1.707v0c-0.254 1.592-0.959 2.898-2.115 3.918-1.148 1.025-2.499 1.726-4.051 2.102z" fill="#ffffff" data-fill-palette-color="primary"></path><path d="M195.887 263.635v0c-0.865-1.731-2.118-4.411-3.759-8.04-1.637-3.638-2.72-6.017-3.247-7.139v0c-0.228-0.486-0.254-0.975-0.076-1.469 0.181-0.502 0.514-0.868 1-1.097 0.492-0.231 0.986-0.255 1.482-0.071 0.494 0.178 0.855 0.51 1.083 0.996v0c0.527 1.121 1.604 3.489 3.231 7.103 1.632 3.611 2.883 6.278 3.751 8v0c0.228 0.486 0.261 0.983 0.097 1.491-0.16 0.5-0.486 0.866-0.978 1.097-0.486 0.228-0.979 0.262-1.478 0.103-0.509-0.163-0.877-0.488-1.106-0.974zM188.357 239.191v0c0.582 0.21 1.011 0.608 1.287 1.196 0.274 0.582 0.305 1.163 0.096 1.745-0.21 0.582-0.605 1.01-1.187 1.283-0.582 0.274-1.163 0.305-1.745 0.096-0.582-0.21-1.01-0.605-1.283-1.187-0.276-0.588-0.31-1.172-0.1-1.755 0.21-0.582 0.61-1.015 1.201-1.3 0.588-0.291 1.165-0.317 1.731-0.078z" fill="#ffffff" data-fill-palette-color="primary"></path><path d="M225.681 246.033v0c-2.147 2.761-4.697 3.92-7.65 3.477v0c-2.305-0.298-4.428-1.352-6.369-3.16v0c-1.502-1.438-2.53-3.122-3.085-5.053v0c-0.749-2.428-0.691-4.711 0.173-6.848v0c0.177-0.437 0.475-0.887 0.895-1.349v0c0.021-0.017 0.152-0.138 0.395-0.365v0c0.087-0.103 0.154-0.19 0.2-0.26v0c0.255-0.296 0.581-0.505 0.976-0.626v0c0.083-0.066 0.279-0.214 0.587-0.442 0.309-0.229 0.517-0.378 0.624-0.446 0.112-0.072 0.303-0.194 0.572-0.367 0.279-0.171 0.515-0.3 0.708-0.387v0l0.743-0.248c0.304-0.107 0.616-0.19 0.933-0.248 0.318-0.058 0.67-0.11 1.057-0.156v0c2.017-0.158 3.915 0.363 5.694 1.563 1.779 1.201 2.938 2.391 3.479 3.57v0c0.686 1.233 1.17 2.499 1.452 3.799 0.286 1.305 0.307 2.645 0.062 4.017-0.236 1.374-0.718 2.55-1.446 3.529zM222.238 243.642v0c0.77-0.809 1.154-1.847 1.152-3.116-0.004-1.259-0.254-2.398-0.753-3.417-0.498-1.018-1.325-1.913-2.482-2.685-1.157-0.772-2.283-1.1-3.376-0.983v0c-0.351 0.017-0.625 0.045-0.823 0.083-0.198 0.039-0.411 0.111-0.64 0.218-0.233 0.101-0.404 0.195-0.513 0.281-0.114 0.091-0.361 0.27-0.74 0.539-0.379 0.268-0.717 0.504-1.013 0.706v0c-0.062 0.05-0.14 0.095-0.235 0.136v0c-0.206 0.198-0.32 0.306-0.34 0.322v0l-0.161 0.23c-0.502 1.188-0.568 2.498-0.197 3.931 0.371 1.433 1.105 2.631 2.203 3.595v0c1.308 1.195 2.626 1.839 3.955 1.932v0c1.435 0.11 2.756-0.48 3.963-1.772z" fill="#ffffff" data-fill-palette-color="primary"></path><path d="M253.158 215.198v0c-0.292 0.361-0.673 0.585-1.143 0.672-0.479 0.088-1.055-0.081-1.728-0.507v0c0.142 1.562-0.027 2.946-0.509 4.15v0c-0.674 1.735-1.877 2.898-3.607 3.491v0c-1.677 0.574-3.715 0.505-6.116-0.207v0c-0.834-0.248-1.65-0.565-2.45-0.951v0c-0.821-0.402-1.642-0.906-2.463-1.512-0.816-0.602-1.472-1.097-1.967-1.486-0.5-0.383-1.163-0.937-1.989-1.66-0.826-0.724-1.349-1.177-1.569-1.359v0c-0.389-0.344-0.607-0.779-0.656-1.303-0.05-0.533 0.095-1.001 0.432-1.403 0.341-0.407 0.774-0.635 1.298-0.683 0.528-0.053 1.005 0.089 1.431 0.428v0c0.297 0.246 0.849 0.732 1.657 1.458 0.812 0.721 1.429 1.242 1.851 1.562 0.423 0.32 0.98 0.736 1.673 1.25 0.692 0.513 1.35 0.92 1.973 1.222 0.62 0.307 1.251 0.564 1.893 0.771v0c1.603 0.449 2.89 0.485 3.864 0.107v0c0.397-0.155 0.835-0.567 1.314-1.234v0c0.5-1.003 0.761-1.917 0.782-2.742 0.021-0.825-0.466-1.958-1.462-3.4v0c-2.746-2.037-5.588-4.033-8.525-5.986v0c-0.457-0.295-0.733-0.706-0.829-1.231-0.096-0.526 0-1.011 0.288-1.458 0.284-0.441 0.693-0.71 1.228-0.807 0.526-0.096 1.003-0.006 1.433 0.271v0c5.055 3.377 9.596 6.653 13.621 9.829v0c0.399 0.319 0.631 0.746 0.695 1.282 0.059 0.532-0.081 1.01-0.42 1.436z" fill="#ffffff" data-fill-palette-color="primary"></path><path d="M265.029 190.702v0c-0.957 1.676-2.151 2.711-3.581 3.104v0c-0.65 0.202-1.427 0.236-2.329 0.1v0l-0.855-0.149c-0.261-0.038-0.472-0.058-0.633-0.06v0c-0.513-0.023-0.944-0.235-1.293-0.635-0.351-0.394-0.498-0.856-0.44-1.385 0.057-0.529 0.273-0.972 0.648-1.329 0.373-0.351 0.827-0.515 1.361-0.492v0c0.293 0.028 0.621 0.065 0.984 0.112v0c0.134 0.02 0.256 0.043 0.367 0.068 0.117 0.028 0.318 0.055 0.604 0.081v0c0.345 0.04 0.675-0.035 0.99-0.224v0c0.365-0.192 0.691-0.568 0.977-1.127v0c0.542-0.896 0.892-1.946 1.051-3.15v0c0.154-1.17 0.11-2.14-0.133-2.911v0c-0.229-0.576-0.562-0.903-0.998-0.983v0c-0.706-0.17-1.367 0.07-1.982 0.722v0c-0.394 0.407-1.141 1.561-2.241 3.46v0c-1.171 1.958-2.238 3.257-3.202 3.896v0c-1.766 1.166-3.721 1.049-5.864-0.351v0c-1.235-0.833-1.984-1.892-2.246-3.177-0.264-1.279-0.199-2.572 0.196-3.881v0c0.344-1.109 0.872-2.172 1.583-3.19 0.704-1.014 1.465-1.824 2.283-2.431v0c0.296-0.196 0.628-0.393 0.995-0.592 0.371-0.19 0.764-0.369 1.176-0.537 0.417-0.16 0.647-0.26 0.69-0.301v0c0.492-0.231 0.975-0.261 1.448-0.09 0.467 0.169 0.816 0.492 1.046 0.968 0.223 0.475 0.245 0.962 0.064 1.461-0.178 0.492-0.501 0.862-0.97 1.108v0c-0.304 0.158-0.621 0.315-0.951 0.47v0l-0.803 0.292c-0.17 0.101-0.352 0.225-0.547 0.373v0c-0.453 0.358-0.913 0.861-1.379 1.51-0.475 0.653-0.826 1.333-1.053 2.04v0c-0.388 1.311-0.206 2.211 0.547 2.701v0c0.794 0.533 1.39 0.667 1.789 0.403v0c0.469-0.324 1.135-1.193 1.997-2.608v0c1.204-2.108 2.136-3.509 2.794-4.202v0c1.612-1.658 3.458-2.264 5.537-1.817v0c1.699 0.366 2.884 1.477 3.553 3.332v0c0.504 1.415 0.623 3.018 0.357 4.809v0c-0.208 1.728-0.72 3.266-1.537 4.612z" fill="#ffffff" data-fill-palette-color="primary"></path><path d="M4.073 142.756c0-5.854 4.746-10.6 10.601-10.601 5.854 0 10.6 4.746 10.6 10.601 0 5.854-4.746 10.6-10.6 10.6-5.854 0-10.6-4.746-10.601-10.6z" fill="#ffffff" data-fill-palette-color="primary"></path><path d="M252.995 142.756c0-5.854 4.746-10.6 10.601-10.601 5.854 0 10.6 4.746 10.6 10.601 0 5.854-4.746 10.6-10.6 10.6-5.854 0-10.6-4.746-10.601-10.6z" fill="#ffffff" data-fill-palette-color="primary"></path></g><g id="text-1"></g></svg></g><g transform="matrix(1,0,0,1,53.1494936,295.58596)"><svg viewBox="0 0 171.97061280000003 9.88949460661157" height="9.88949460661157" width="171.97061280000003"><g transform="matrix(1,0,0,1,0,0)"><svg width="171.97061280000003" viewBox="1.9 -37.1 874.46 50.1" height="9.88949460661157" data-palette-color="#ecc2e6"><path d="M15.8-36.55Q17.1-36.05 18.05-35L18.05-35 15.9-33.15Q14.8-34.5 12.6-34.5L12.6-34.5Q9.5-34.5 8.47-31.98 7.45-29.45 7.45-25.25L7.45-25.25 7.45-25 14.85-25 14.85-22.4 7.45-22.4 7.45 0 4.45 0 4.45-22.4 1.9-22.4 1.9-25 4.45-25 4.45-25.75Q4.45-31.1 6.23-34.1 8-37.1 12.5-37.1L12.5-37.1Q14.45-37.1 15.8-36.55L15.8-36.55ZM20.55 0L20.55-25.05 23.55-25.05 23.55 0 20.55 0ZM21.95-28.25Q21.1-28.25 20.47-28.88 19.85-29.5 19.85-30.35L19.85-30.35Q19.85-31.25 20.47-31.88 21.1-32.5 21.95-32.5L21.95-32.5Q22.85-32.5 23.47-31.88 24.1-31.25 24.1-30.35L24.1-30.35Q24.1-29.5 23.47-28.88 22.85-28.25 21.95-28.25L21.95-28.25ZM31.79-17.65Q31.79-21.5 29.74-23.55L29.74-23.55 31.64-25.4Q33.84-23.85 34.45-20.9L34.45-20.9Q36.09-23.25 38.14-24.38 40.2-25.5 43.09-25.5L43.09-25.5Q47-25.5 49.17-23.4 51.34-21.3 51.3-17.35L51.3-17.35 51.14 0 48.25 0 48.3-16.8Q48.3-22.8 42.84-22.8L42.84-22.8Q40.3-22.8 38.52-21.58 36.74-20.35 34.8-17.7L34.8-17.7 34.8 0 31.79 0 31.79-17.65ZM67.59 0.5Q64.24 0.5 61.84-1.23 59.44-2.95 58.19-5.88 56.94-8.8 56.94-12.3L56.94-12.3Q56.94-16.1 58.37-19.07 59.79-22.05 62.54-23.73 65.29-25.4 69.09-25.4L69.09-25.4Q70.24-25.4 72.02-25.28 73.79-25.15 75.14-24.95L75.14-24.95 75.14-36.35 77.89-36.35 77.89-7.2Q77.89-3.35 79.84-1.25L79.84-1.25 78.14 0.4Q76.19-1.05 75.49-3.9L75.49-3.9Q74.34-1.65 72.22-0.58 70.09 0.5 67.59 0.5L67.59 0.5ZM67.74-2.1Q69.99-2.1 71.77-3.2 73.54-4.3 74.44-6.2L74.44-6.2Q75.14-7.6 75.14-9.4L75.14-9.4 75.14-22.3Q72.39-22.65 71.17-22.73 69.94-22.8 68.64-22.8L68.64-22.8Q65.89-22.8 63.89-21.45 61.89-20.1 60.84-17.73 59.79-15.35 59.79-12.45L59.79-12.45Q59.79-8.1 61.89-5.1 63.99-2.1 67.74-2.1L67.74-2.1ZM111.89-36.55Q113.19-36.05 114.14-35L114.14-35 111.99-33.15Q110.89-34.5 108.69-34.5L108.69-34.5Q105.59-34.5 104.56-31.98 103.54-29.45 103.54-25.25L103.54-25.25 103.54-25 110.94-25 110.94-22.4 103.54-22.4 103.54 0 100.54 0 100.54-22.4 97.99-22.4 97.99-25 100.54-25 100.54-25.75Q100.54-31.1 102.31-34.1 104.09-37.1 108.59-37.1L108.59-37.1Q110.54-37.1 111.89-36.55L111.89-36.55ZM126.79-25.5Q128.28-25.5 129.78-25.05L129.78-25.05 129.78-22.25Q128.34-22.6 126.89-22.6L126.89-22.6Q124.34-22.6 122.74-21.35L122.74-21.35Q121.14-20.1 119.89-17.8L119.89-17.8 119.89 0 116.89 0 116.89-17.5Q116.89-21.45 114.79-23.3L114.79-23.3 116.79-25.3Q117.69-24.75 118.48-23.65 119.29-22.55 119.64-21.2L119.64-21.2Q121.04-23.5 122.44-24.35L122.44-24.35Q124.19-25.5 126.79-25.5L126.79-25.5ZM135.13-11.45Q135.18-7.95 136.83-5.05 138.48-2.15 143.43-2.15L143.43-2.15Q145.58-2.15 147.41-2.7 149.23-3.25 151.38-4.5L151.38-4.5 152.68-2.4Q150.68-1.05 148.23-0.25 145.78 0.55 143.23 0.55L143.23 0.55Q137.98 0.55 135.06-2.83 132.13-6.2 132.13-11.7L132.13-11.7Q132.13-15.25 133.43-18.38 134.73-21.5 137.28-23.45 139.83-25.4 143.28-25.4L143.28-25.4Q146.18-25.4 148.56-24.03 150.93-22.65 152.31-20.28 153.68-17.9 153.68-15L153.68-15Q153.68-14.2 153.63-13.58 153.58-12.95 153.53-12.5L153.53-12.5 153.43-11.45 135.13-11.45ZM135.28-14.15L150.63-14.15Q150.68-14.5 150.68-15.15L150.68-15.15Q150.68-17.25 149.68-18.98 148.68-20.7 146.98-21.7 145.28-22.7 143.23-22.7L143.23-22.7Q140.18-22.7 138.01-20.48 135.83-18.25 135.28-14.15L135.28-14.15ZM166.63 0.6Q161.58 0.6 157.23-3.3L157.23-3.3 158.88-5.3Q160.78-3.75 162.66-2.93 164.53-2.1 166.68-2.1L166.68-2.1Q169.38-2.1 170.91-3.38 172.43-4.65 172.43-6.85L172.43-6.85Q172.43-8.25 171.76-9.13 171.08-10 169.96-10.55 168.83-11.1 165.93-12.3L165.93-12.3Q163.28-13.4 161.83-14.2 160.38-15 159.53-16.18 158.68-17.35 158.68-19.15L158.68-19.15Q158.68-22.1 160.78-23.88 162.88-25.65 166.38-25.65L166.38-25.65Q168.18-25.65 169.96-25.15 171.73-24.65 172.98-23.7L172.98-23.7 171.73-21.55Q169.43-22.95 166.53-22.95L166.53-22.95Q164.23-22.95 162.98-22.05 161.73-21.15 161.73-19.5L161.73-19.5Q161.73-18.25 162.41-17.45 163.08-16.65 164.16-16.13 165.23-15.6 167.73-14.6L167.73-14.6Q170.58-13.45 172.16-12.53 173.73-11.6 174.61-10.28 175.48-8.95 175.48-7L175.48-7Q175.48-3.55 173.06-1.48 170.63 0.6 166.63 0.6L166.63 0.6ZM180.98-36.3L183.98-36.3 183.98-21.35Q185.53-23.5 187.58-24.5 189.63-25.5 192.33-25.5L192.33-25.5Q196.38-25.5 198.4-23.38 200.43-21.25 200.43-17.35L200.43-17.35 200.43 0 197.43 0 197.43-16.8Q197.43-19.55 196.08-21.13 194.73-22.7 192.03-22.7L192.03-22.7Q189.63-22.7 187.73-21.45 185.83-20.2 183.98-17.7L183.98-17.7 183.98 0 180.98 0 180.98-36.3ZM221.97 0L221.97-36.3 224.97-36.3 224.97 0 221.97 0ZM243.47 0.5Q239.92 0.5 237.15-1.15 234.37-2.8 232.82-5.75 231.27-8.7 231.27-12.45L231.27-12.45Q231.27-16.2 232.85-19.18 234.42-22.15 237.2-23.83 239.97-25.5 243.52-25.5L243.52-25.5Q247.02-25.5 249.8-23.83 252.57-22.15 254.15-19.2 255.72-16.25 255.72-12.5L255.72-12.5Q255.72-8.75 254.15-5.8 252.57-2.85 249.8-1.18 247.02 0.5 243.47 0.5L243.47 0.5ZM243.52-2.2Q247.67-2.2 250.2-5.05 252.72-7.9 252.72-12.5L252.72-12.5Q252.72-15.55 251.57-17.88 250.42-20.2 248.32-21.5 246.22-22.8 243.52-22.8L243.52-22.8Q240.77-22.8 238.67-21.5 236.57-20.2 235.42-17.82 234.27-15.45 234.27-12.45L234.27-12.45Q234.27-9.45 235.42-7.13 236.57-4.8 238.67-3.5 240.77-2.2 243.52-2.2L243.52-2.2ZM271.87 0.35Q266.42 0.35 263.29-3 260.17-6.35 260.17-12.15L260.17-12.15Q260.17-16.15 261.67-19.23 263.17-22.3 265.92-23.98 268.67-25.65 272.27-25.65L272.27-25.65Q274.27-25.65 275.99-24.93 277.72-24.2 279.57-22.6L279.57-22.6 277.57-20.8Q276.42-21.95 275.19-22.45 273.97-22.95 272.27-22.95L272.27-22.95Q268.12-22.95 265.64-19.98 263.17-17 263.17-12L263.17-12Q263.17-7.4 265.49-4.88 267.82-2.35 272.12-2.35L272.12-2.35Q275.77-2.35 280.02-4.7L280.02-4.7 281.32-2.6Q279.27-1.2 276.79-0.43 274.32 0.35 271.87 0.35L271.87 0.35ZM303.07 0.4Q302.12-0.35 301.54-1.25 300.97-2.15 300.47-3.6L300.47-3.6Q299.47-1.65 297.49-0.58 295.52 0.5 292.72 0.5L292.72 0.5Q288.77 0.5 286.39-1.6 284.02-3.7 284.02-7.3L284.02-7.3Q284.02-11.1 286.69-13.2 289.37-15.3 294.27-15.3L294.27-15.3 300.07-15.3 300.07-17.1Q300.07-20.1 298.77-21.55 297.47-23 294.77-23L294.77-23Q292.77-23 290.67-22.28 288.57-21.55 286.92-20.3L286.92-20.3 285.57-22.5Q287.42-24.05 289.84-24.88 292.27-25.7 294.82-25.7L294.82-25.7Q298.87-25.7 300.97-23.63 303.07-21.55 303.07-17.65L303.07-17.65 303.07-7.2Q303.07-3.35 305.02-1.25L305.02-1.25 303.07 0.4ZM292.77-2.2Q296.12-2.2 298.09-4.05 300.07-5.9 300.07-8.85L300.07-8.85 300.07-12.6 294.97-12.6Q290.72-12.6 288.87-11.38 287.02-10.15 287.02-7.35L287.02-7.35Q287.02-4.85 288.52-3.53 290.02-2.2 292.77-2.2L292.77-2.2ZM310.96 0L310.96-36.3 313.96-36.3 313.96 0 310.96 0ZM352.81 0.4Q351.86-0.35 351.28-1.25 350.71-2.15 350.21-3.6L350.21-3.6Q349.21-1.65 347.23-0.58 345.26 0.5 342.46 0.5L342.46 0.5Q338.51 0.5 336.13-1.6 333.76-3.7 333.76-7.3L333.76-7.3Q333.76-11.1 336.43-13.2 339.11-15.3 344.01-15.3L344.01-15.3 349.81-15.3 349.81-17.1Q349.81-20.1 348.51-21.55 347.21-23 344.51-23L344.51-23Q342.51-23 340.41-22.28 338.31-21.55 336.66-20.3L336.66-20.3 335.31-22.5Q337.16-24.05 339.58-24.88 342.01-25.7 344.56-25.7L344.56-25.7Q348.61-25.7 350.71-23.63 352.81-21.55 352.81-17.65L352.81-17.65 352.81-7.2Q352.81-3.35 354.76-1.25L354.76-1.25 352.81 0.4ZM342.51-2.2Q345.86-2.2 347.83-4.05 349.81-5.9 349.81-8.85L349.81-8.85 349.81-12.6 344.71-12.6Q340.46-12.6 338.61-11.38 336.76-10.15 336.76-7.35L336.76-7.35Q336.76-4.85 338.26-3.53 339.76-2.2 342.51-2.2L342.51-2.2ZM360.46-17.65Q360.46-21.5 358.41-23.55L358.41-23.55 360.31-25.4Q362.51-23.85 363.11-20.9L363.11-20.9Q364.76-23.25 366.81-24.38 368.86-25.5 371.76-25.5L371.76-25.5Q375.66-25.5 377.83-23.4 380.01-21.3 379.96-17.35L379.96-17.35 379.81 0 376.91 0 376.96-16.8Q376.96-22.8 371.51-22.8L371.51-22.8Q368.96-22.8 367.18-21.58 365.41-20.35 363.46-17.7L363.46-17.7 363.46 0 360.46 0 360.46-17.65ZM396.25 0.5Q392.9 0.5 390.5-1.23 388.1-2.95 386.85-5.88 385.6-8.8 385.6-12.3L385.6-12.3Q385.6-16.1 387.03-19.07 388.45-22.05 391.2-23.73 393.95-25.4 397.75-25.4L397.75-25.4Q398.9-25.4 400.68-25.28 402.45-25.15 403.8-24.95L403.8-24.95 403.8-36.35 406.55-36.35 406.55-7.2Q406.55-3.35 408.5-1.25L408.5-1.25 406.8 0.4Q404.85-1.05 404.15-3.9L404.15-3.9Q403-1.65 400.88-0.58 398.75 0.5 396.25 0.5L396.25 0.5ZM396.4-2.1Q398.65-2.1 400.43-3.2 402.2-4.3 403.1-6.2L403.1-6.2Q403.8-7.6 403.8-9.4L403.8-9.4 403.8-22.3Q401.05-22.65 399.83-22.73 398.6-22.8 397.3-22.8L397.3-22.8Q394.55-22.8 392.55-21.45 390.55-20.1 389.5-17.73 388.45-15.35 388.45-12.45L388.45-12.45Q388.45-8.1 390.55-5.1 392.65-2.1 396.4-2.1L396.4-2.1ZM428.75-36.3L431.75-36.3 431.75-21.35Q433.3-23.5 435.35-24.5 437.4-25.5 440.1-25.5L440.1-25.5Q444.15-25.5 446.17-23.38 448.2-21.25 448.2-17.35L448.2-17.35 448.2 0 445.2 0 445.2-16.8Q445.2-19.55 443.85-21.13 442.5-22.7 439.8-22.7L439.8-22.7Q437.4-22.7 435.5-21.45 433.6-20.2 431.75-17.7L431.75-17.7 431.75 0 428.75 0 428.75-36.3ZM466.25 0.5Q462.7 0.5 459.92-1.15 457.15-2.8 455.6-5.75 454.05-8.7 454.05-12.45L454.05-12.45Q454.05-16.2 455.62-19.18 457.2-22.15 459.97-23.83 462.75-25.5 466.3-25.5L466.3-25.5Q469.8-25.5 472.57-23.83 475.35-22.15 476.92-19.2 478.5-16.25 478.5-12.5L478.5-12.5Q478.5-8.75 476.92-5.8 475.35-2.85 472.57-1.18 469.8 0.5 466.25 0.5L466.25 0.5ZM466.3-2.2Q470.45-2.2 472.97-5.05 475.5-7.9 475.5-12.5L475.5-12.5Q475.5-15.55 474.35-17.88 473.2-20.2 471.1-21.5 469-22.8 466.3-22.8L466.3-22.8Q463.55-22.8 461.45-21.5 459.35-20.2 458.2-17.82 457.05-15.45 457.05-12.45L457.05-12.45Q457.05-9.45 458.2-7.13 459.35-4.8 461.45-3.5 463.55-2.2 466.3-2.2L466.3-2.2ZM484.54-17.65Q484.54-21.5 482.49-23.55L482.49-23.55 484.34-25.4Q486.49-23.8 487.09-21.15L487.09-21.15Q488.49-23.35 490.47-24.43 492.44-25.5 494.79-25.5L494.79-25.5Q497.24-25.5 499.07-24.35 500.89-23.2 501.79-21L501.79-21Q503.19-23.2 505.27-24.35 507.34-25.5 509.69-25.5L509.69-25.5Q513.09-25.5 515.27-23.3 517.44-21.1 517.39-17.35L517.39-17.35 517.19 0 514.29 0 514.39-16.8Q514.39-22.8 509.44-22.8L509.44-22.8Q505.04-22.8 502.44-17.8L502.44-17.8 502.44 0 499.44 0 499.44-16.8Q499.44-19.6 498.22-21.23 496.99-22.85 494.64-22.85L494.64-22.85Q492.34-22.85 490.37-21.4 488.39-19.95 487.54-17.9L487.54-17.9 487.54 0 484.54 0 484.54-17.65ZM525.99-11.45Q526.04-7.95 527.69-5.05 529.34-2.15 534.29-2.15L534.29-2.15Q536.44-2.15 538.26-2.7 540.09-3.25 542.24-4.5L542.24-4.5 543.54-2.4Q541.54-1.05 539.09-0.25 536.64 0.55 534.09 0.55L534.09 0.55Q528.84 0.55 525.92-2.83 522.99-6.2 522.99-11.7L522.99-11.7Q522.99-15.25 524.29-18.38 525.59-21.5 528.14-23.45 530.69-25.4 534.14-25.4L534.14-25.4Q537.04-25.4 539.42-24.03 541.79-22.65 543.17-20.28 544.54-17.9 544.54-15L544.54-15Q544.54-14.2 544.49-13.58 544.44-12.95 544.39-12.5L544.39-12.5 544.29-11.45 525.99-11.45ZM526.14-14.15L541.49-14.15Q541.54-14.5 541.54-15.15L541.54-15.15Q541.54-17.25 540.54-18.98 539.54-20.7 537.84-21.7 536.14-22.7 534.09-22.7L534.09-22.7Q531.04-22.7 528.87-20.48 526.69-18.25 526.14-14.15L526.14-14.15ZM561.29 12.85Q549.79 12.85 549.79 3.4L549.79 3.4Q549.79 2.6 550.04 0.45L550.04 0.45 550.19-0.9Q549.19-1.7 548.56-2.9 547.94-4.1 547.94-5.45L547.94-5.45Q547.94-6.85 548.69-8.35 549.44-9.85 551.24-10.65L551.24-10.65Q551.84-10.9 552.46-11 553.09-11.1 554.19-11.15L554.19-11.15Q552.29-13.45 552.29-16.6L552.29-16.6Q552.29-19.35 553.56-21.38 554.84-23.4 556.99-24.5 559.14-25.6 561.74-25.6L561.74-25.6Q563.69-25.6 565.24-24.9L565.24-24.9 573.49-24.9 573.49-22.35 568.94-22.65Q571.19-20.25 571.19-16.7L571.19-16.7Q571.19-12.6 568.56-10.28 565.94-7.95 561.74-7.95L561.74-7.95Q558.99-7.95 556.89-9L556.89-9Q555.79-9.1 554.94-9.1L554.94-9.1Q553.84-9.1 553.24-8.95L553.24-8.95Q552.39-8.7 551.61-7.8 550.84-6.9 550.84-5.5L550.84-5.5Q550.84-3.9 551.99-3.25 553.14-2.6 555.39-2.6L555.39-2.6 558.79-2.7 563.04-2.8Q568.14-2.8 571.11-0.95 574.09 0.9 574.09 4.65L574.09 4.65Q574.09 8.9 570.41 10.88 566.74 12.85 561.29 12.85L561.29 12.85ZM561.84-10.55Q564.94-10.55 566.56-12.25 568.19-13.95 568.19-16.65L568.19-16.65Q568.19-19.55 566.41-21.23 564.64-22.9 561.69-22.9L561.69-22.9Q558.69-22.9 556.99-21.2 555.29-19.5 555.29-16.65L555.29-16.65Q555.29-13.7 557.09-12.13 558.89-10.55 561.84-10.55L561.84-10.55ZM561.29 10.15Q571.09 10.15 571.09 4.75L571.09 4.75Q571.09-0.1 562.84-0.1L562.84-0.1Q560.54-0.1 558.74 0L558.74 0 556.54 0.05Q554.09 0.05 552.69-0.2L552.69-0.2 552.79 3.1Q552.89 5.85 553.79 7.38 554.69 8.9 556.46 9.53 558.24 10.15 561.29 10.15L561.29 10.15ZM588.63-25.5Q590.13-25.5 591.63-25.05L591.63-25.05 591.63-22.25Q590.18-22.6 588.73-22.6L588.73-22.6Q586.18-22.6 584.58-21.35L584.58-21.35Q582.98-20.1 581.73-17.8L581.73-17.8 581.73 0 578.73 0 578.73-17.5Q578.73-21.45 576.63-23.3L576.63-23.3 578.63-25.3Q579.53-24.75 580.33-23.65 581.13-22.55 581.48-21.2L581.48-21.2Q582.88-23.5 584.28-24.35L584.28-24.35Q586.03-25.5 588.63-25.5L588.63-25.5ZM606.33 0.5Q602.78 0.5 600.01-1.15 597.23-2.8 595.68-5.75 594.13-8.7 594.13-12.45L594.13-12.45Q594.13-16.2 595.71-19.18 597.28-22.15 600.06-23.83 602.83-25.5 606.38-25.5L606.38-25.5Q609.88-25.5 612.66-23.83 615.43-22.15 617.01-19.2 618.58-16.25 618.58-12.5L618.58-12.5Q618.58-8.75 617.01-5.8 615.43-2.85 612.66-1.18 609.88 0.5 606.33 0.5L606.33 0.5ZM606.38-2.2Q610.53-2.2 613.06-5.05 615.58-7.9 615.58-12.5L615.58-12.5Q615.58-15.55 614.43-17.88 613.28-20.2 611.18-21.5 609.08-22.8 606.38-22.8L606.38-22.8Q603.63-22.8 601.53-21.5 599.43-20.2 598.28-17.82 597.13-15.45 597.13-12.45L597.13-12.45Q597.13-9.45 598.28-7.13 599.43-4.8 601.53-3.5 603.63-2.2 606.38-2.2L606.38-2.2ZM623.98-20.8Q623.68-21.7 622.98-22.53 622.28-23.35 621.58-23.75L621.58-23.75 622.98-25.85Q625.73-24 626.88-20.4L626.88-20.4 632.18-4.35 638.93-25 641.73-25 648.48-4.35 655.23-25 658.03-25 649.88-0.05 647.08-0.05 640.33-20.7 633.58-0.05 630.73-0.05 623.98-20.8ZM663.33-17.65Q663.33-21.5 661.28-23.55L661.28-23.55 663.18-25.4Q665.38-23.85 665.98-20.9L665.98-20.9Q667.63-23.25 669.68-24.38 671.73-25.5 674.63-25.5L674.63-25.5Q678.53-25.5 680.7-23.4 682.88-21.3 682.83-17.35L682.83-17.35 682.68 0 679.78 0 679.83-16.8Q679.83-22.8 674.38-22.8L674.38-22.8Q671.83-22.8 670.05-21.58 668.28-20.35 666.33-17.7L666.33-17.7 666.33 0 663.33 0 663.33-17.65ZM714.87-25.4Q718.32-25.4 720.75-23.68 723.17-21.95 724.4-19.05 725.62-16.15 725.62-12.6L725.62-12.6Q725.62-8.75 724.17-5.8 722.72-2.85 719.97-1.18 717.22 0.5 713.42 0.5L713.42 0.5Q712.17 0.5 707.47-0.15L707.47-0.15 707.47 13 704.62 13 704.62-17.6Q704.62-21.55 702.52-23.4L702.52-23.4 704.52-25.4Q705.37-24.8 706.17-23.75 706.97-22.7 707.32-21.45L707.32-21.45Q709.47-25.4 714.87-25.4L714.87-25.4ZM713.17-2.2Q717.87-2.2 720.25-4.93 722.62-7.65 722.62-12.35L722.62-12.35Q722.62-16.8 720.6-19.75 718.57-22.7 714.97-22.7L714.97-22.7Q712.12-22.7 709.9-20.95 707.67-19.2 707.47-16.4L707.47-16.4 707.47-2.65Q712.07-2.2 713.17-2.2L713.17-2.2ZM741.47-25.5Q742.97-25.5 744.47-25.05L744.47-25.05 744.47-22.25Q743.02-22.6 741.57-22.6L741.57-22.6Q739.02-22.6 737.42-21.35L737.42-21.35Q735.82-20.1 734.57-17.8L734.57-17.8 734.57 0 731.57 0 731.57-17.5Q731.57-21.45 729.47-23.3L729.47-23.3 731.47-25.3Q732.37-24.75 733.17-23.65 733.97-22.55 734.32-21.2L734.32-21.2Q735.72-23.5 737.12-24.35L737.12-24.35Q738.87-25.5 741.47-25.5L741.47-25.5ZM759.17 0.5Q755.62 0.5 752.84-1.15 750.07-2.8 748.52-5.75 746.97-8.7 746.97-12.45L746.97-12.45Q746.97-16.2 748.54-19.18 750.12-22.15 752.89-23.83 755.67-25.5 759.22-25.5L759.22-25.5Q762.72-25.5 765.49-23.83 768.27-22.15 769.84-19.2 771.42-16.25 771.42-12.5L771.42-12.5Q771.42-8.75 769.84-5.8 768.27-2.85 765.49-1.18 762.72 0.5 759.17 0.5L759.17 0.5ZM759.22-2.2Q763.37-2.2 765.89-5.05 768.42-7.9 768.42-12.5L768.42-12.5Q768.42-15.55 767.27-17.88 766.12-20.2 764.02-21.5 761.92-22.8 759.22-22.8L759.22-22.8Q756.47-22.8 754.37-21.5 752.27-20.2 751.12-17.82 749.97-15.45 749.97-12.45L749.97-12.45Q749.97-9.45 751.12-7.13 752.27-4.8 754.37-3.5 756.47-2.2 759.22-2.2L759.22-2.2ZM786.51 0.5Q783.16 0.5 780.76-1.23 778.36-2.95 777.11-5.88 775.86-8.8 775.86-12.3L775.86-12.3Q775.86-16.1 777.29-19.07 778.71-22.05 781.46-23.73 784.21-25.4 788.01-25.4L788.01-25.4Q789.16-25.4 790.94-25.28 792.71-25.15 794.06-24.95L794.06-24.95 794.06-36.35 796.81-36.35 796.81-7.2Q796.81-3.35 798.76-1.25L798.76-1.25 797.06 0.4Q795.11-1.05 794.41-3.9L794.41-3.9Q793.26-1.65 791.14-0.58 789.01 0.5 786.51 0.5L786.51 0.5ZM786.66-2.1Q788.91-2.1 790.69-3.2 792.46-4.3 793.36-6.2L793.36-6.2Q794.06-7.6 794.06-9.4L794.06-9.4 794.06-22.3Q791.31-22.65 790.09-22.73 788.86-22.8 787.56-22.8L787.56-22.8Q784.81-22.8 782.81-21.45 780.81-20.1 779.76-17.73 778.71-15.35 778.71-12.45L778.71-12.45Q778.71-8.1 780.81-5.1 782.91-2.1 786.66-2.1L786.66-2.1ZM813.01 0.4Q808.81 0.4 806.64-1.7 804.46-3.8 804.46-7.7L804.46-7.7 804.46-25 807.46-25 807.46-8.25Q807.46-5.45 808.76-3.88 810.06-2.3 813.16-2.3L813.16-2.3Q815.76-2.3 817.49-3.58 819.21-4.85 821.11-7.45L821.11-7.45 821.11-25 824.11-25 824.11-7.35Q824.11-3.45 826.06-1.45L826.06-1.45 824.21 0.35Q823.11-0.45 822.39-1.73 821.66-3 821.41-4.3L821.41-4.3Q819.81-1.8 817.74-0.7 815.66 0.4 813.01 0.4L813.01 0.4ZM841.81 0.35Q836.36 0.35 833.23-3 830.11-6.35 830.11-12.15L830.11-12.15Q830.11-16.15 831.61-19.23 833.11-22.3 835.86-23.98 838.61-25.65 842.21-25.65L842.21-25.65Q844.21-25.65 845.93-24.93 847.66-24.2 849.51-22.6L849.51-22.6 847.51-20.8Q846.36-21.95 845.13-22.45 843.91-22.95 842.21-22.95L842.21-22.95Q838.06-22.95 835.58-19.98 833.11-17 833.11-12L833.11-12Q833.11-7.4 835.43-4.88 837.76-2.35 842.06-2.35L842.06-2.35Q845.71-2.35 849.96-4.7L849.96-4.7 851.26-2.6Q849.21-1.2 846.73-0.43 844.26 0.35 841.81 0.35L841.81 0.35ZM857.81-11.45Q857.86-7.95 859.51-5.05 861.16-2.15 866.11-2.15L866.11-2.15Q868.26-2.15 870.08-2.7 871.91-3.25 874.06-4.5L874.06-4.5 875.36-2.4Q873.36-1.05 870.91-0.25 868.46 0.55 865.91 0.55L865.91 0.55Q860.66 0.55 857.73-2.83 854.81-6.2 854.81-11.7L854.81-11.7Q854.81-15.25 856.11-18.38 857.41-21.5 859.96-23.45 862.51-25.4 865.96-25.4L865.96-25.4Q868.86-25.4 871.23-24.03 873.61-22.65 874.98-20.28 876.36-17.9 876.36-15L876.36-15Q876.36-14.2 876.31-13.58 876.26-12.95 876.21-12.5L876.21-12.5 876.11-11.45 857.81-11.45ZM857.96-14.15L873.31-14.15Q873.36-14.5 873.36-15.15L873.36-15.15Q873.36-17.25 872.36-18.98 871.36-20.7 869.66-21.7 867.96-22.7 865.91-22.7L865.91-22.7Q862.86-22.7 860.68-20.48 858.51-18.25 857.96-14.15L857.96-14.15Z" opacity="1" transform="matrix(1,0,0,1,0,0)" fill="#ffffff" class="slogan-text-1" data-fill-palette-color="secondary" id="text-1"></path></svg></g></svg></g></svg></g></svg></g></svg></g><defs></defs></svg><rect width="255.06300694548057" height="280" fill="none" stroke="none" visibility="hidden"></rect></g></svg></g></svg>