<svg xmlns="http://www.w3.org/2000/svg" version="1.1" xmlns:xlink="http://www.w3.org/1999/xlink" xmlns:svgjs="http://svgjs.dev/svgjs" width="1000" height="623" viewBox="0 0 1000 623"><g transform="matrix(1,0,0,1,-0.6060606060606233,0.2522267206477409)"><svg viewBox="0 0 396 247" data-background-color="#8abe53" preserveAspectRatio="xMidYMid meet" height="623" width="1000" xmlns="http://www.w3.org/2000/svg" xmlns:xlink="http://www.w3.org/1999/xlink"><g id="tight-bounds" transform="matrix(1,0,0,1,0.2400000000000091,-0.09999999999999432)"><svg viewBox="0 0 395.52 247.2" height="247.2" width="395.52"><g><svg></svg></g><g><svg viewBox="0 0 395.52 247.2" height="247.2" width="395.52"><g transform="matrix(1,0,0,1,75.54432,81.08991043604124)"><svg viewBox="0 0 244.43135999999998 85.02017912791752" height="85.02017912791752" width="244.43135999999998"><g><svg viewBox="0 0 244.43135999999998 85.02017912791752" height="85.02017912791752" width="244.43135999999998"><g><svg viewBox="0 0 244.43135999999998 85.02017912791752" height="85.02017912791752" width="244.43135999999998"><g><svg viewBox="0 0 244.43135999999998 85.02017912791752" height="85.02017912791752" width="244.43135999999998"><g id="textblocktransform"><svg viewBox="0 0 244.43135999999998 85.02017912791752" height="85.02017912791752" width="244.43135999999998" id="textblock"><g><svg viewBox="0 0 244.43135999999998 49.1103868606737" height="49.1103868606737" width="244.43135999999998"><g transform="matrix(1,0,0,1,0,0)"><svg width="244.43135999999998" viewBox="0.95 -38.15 250.83 50.39999999999999" height="49.1103868606737" data-palette-color="#4d7e3e"><path d="M15.5 0L11 0 0.95-26.7 5-26.7 13.3-3.7 21.85-26.7 25.85-26.7 15.5 0ZM39.8 0.3L39.8 0.3Q35.6 0.3 33.17-0.95 30.75-2.2 29.7-5.2 28.65-8.2 28.65-13.4L28.65-13.4Q28.65-18.7 29.72-21.68 30.8-24.65 33.25-25.85 35.7-27.05 39.85-27.05L39.85-27.05Q43.4-27.05 45.62-26.25 47.85-25.45 48.92-23.53 50-21.6 50-18.2L50-18.2Q50-15.85 49.07-14.43 48.15-13 46.42-12.38 44.7-11.75 42.35-11.75L42.35-11.75 32.6-11.75Q32.65-8.5 33.3-6.53 33.95-4.55 35.67-3.68 37.4-2.8 40.75-2.8L40.75-2.8 49.35-2.8 49.35-0.4Q47.05-0.1 44.85 0.1 42.65 0.3 39.8 0.3ZM32.55-14.35L32.55-14.35 42.05-14.35Q44.3-14.35 45.37-15.18 46.45-16 46.45-18.15L46.45-18.15Q46.45-20.45 45.77-21.73 45.1-23 43.67-23.53 42.25-24.05 39.85-24.05L39.85-24.05Q37.05-24.05 35.45-23.23 33.85-22.4 33.2-20.3 32.55-18.2 32.55-14.35ZM70.64 12.25L63.2 12.25Q60.59 12.25 58.62 11.53 56.64 10.8 55.52 9.33 54.39 7.85 54.39 5.65L54.39 5.65 54.39 4.45Q54.39 2.15 55.67 0.6 56.95-0.95 58.89-1.73 60.84-2.5 62.89-2.5L62.89-2.5 63.89-0.9Q62.39-0.9 61.09-0.43 59.8 0.05 58.97 1.1 58.14 2.15 58.14 3.8L58.14 3.8 58.14 4.9Q58.14 7.3 59.74 8.33 61.34 9.35 64.09 9.35L64.09 9.35 70.3 9.35Q73.3 9.35 75.02 8.2 76.75 7.05 76.75 4.6L76.75 4.6 76.75 3.6Q76.75 2.2 76.19 1.2 75.64 0.2 74.37-0.35 73.09-0.9 70.8-0.9L70.8-0.9 62.74-0.9Q59.64-0.9 57.92-2.23 56.2-3.55 56.2-5.65L56.2-5.65Q56.2-7.65 57.37-8.8 58.55-9.95 60.7-10.4L60.7-10.4Q58.84-11.15 57.8-12.43 56.74-13.7 56.34-15.18 55.95-16.65 55.95-18.15L55.95-18.15Q55.95-21.25 57.2-23.15 58.45-25.05 60.77-25.9 63.09-26.75 66.25-26.75L66.25-26.75 80.5-26.75 80.5-24.5 74.5-24Q75.14-23.55 75.94-22.83 76.75-22.1 77.32-20.78 77.89-19.45 77.89-17.15L77.89-17.15Q77.89-15.1 77.02-13.25 76.14-11.4 74.09-10.23 72.05-9.05 68.44-9.05L68.44-9.05 64.19-9.05Q62.09-9.05 60.87-8.43 59.64-7.8 59.64-6.2L59.64-6.2Q59.64-5 60.55-4.5 61.45-4 62.45-4L62.45-4 71.3-4Q74.39-4 76.42-3.2 78.44-2.4 79.47-0.78 80.5 0.85 80.5 3.35L80.5 3.35 80.5 4.45Q80.5 8.1 78.02 10.18 75.55 12.25 70.64 12.25L70.64 12.25ZM65.05-12.1L65.05-12.1 68.05-12.1Q70.59-12.1 71.92-12.88 73.25-13.65 73.75-14.9 74.25-16.15 74.25-17.6L74.25-17.6Q74.25-19.85 73.52-21.18 72.8-22.5 71.5-23.08 70.19-23.65 68.5-23.65L68.5-23.65 65.64-23.65Q62.8-23.65 61.17-22.38 59.55-21.1 59.55-17.95L59.55-17.95Q59.55-14.85 61.02-13.48 62.49-12.1 65.05-12.1ZM95.64 0.3L95.64 0.3Q91.44 0.3 89.02-0.95 86.59-2.2 85.54-5.2 84.49-8.2 84.49-13.4L84.49-13.4Q84.49-18.7 85.57-21.68 86.64-24.65 89.09-25.85 91.54-27.05 95.69-27.05L95.69-27.05Q99.24-27.05 101.47-26.25 103.69-25.45 104.77-23.53 105.84-21.6 105.84-18.2L105.84-18.2Q105.84-15.85 104.92-14.43 103.99-13 102.27-12.38 100.54-11.75 98.19-11.75L98.19-11.75 88.44-11.75Q88.49-8.5 89.14-6.53 89.79-4.55 91.52-3.68 93.24-2.8 96.59-2.8L96.59-2.8 105.19-2.8 105.19-0.4Q102.89-0.1 100.69 0.1 98.49 0.3 95.64 0.3ZM88.39-14.35L88.39-14.35 97.89-14.35Q100.14-14.35 101.22-15.18 102.29-16 102.29-18.15L102.29-18.15Q102.29-20.45 101.62-21.73 100.94-23 99.52-23.53 98.09-24.05 95.69-24.05L95.69-24.05Q92.89-24.05 91.29-23.23 89.69-22.4 89.04-20.3 88.39-18.2 88.39-14.35ZM122.89 0.05L119.49 0.05Q117.19 0.05 115.64-0.78 114.09-1.6 113.29-3.48 112.49-5.35 112.49-8.55L112.49-8.55 112.49-38.15 116.44-38.15 116.44-9.05Q116.44-6.65 116.89-5.43 117.34-4.2 118.19-3.73 119.04-3.25 120.19-3.1L120.19-3.1 122.89-2.8 122.89 0.05ZM130.59-31.45L127.79-31.45Q126.99-31.45 126.99-32.25L126.99-32.25 126.99-36.15Q126.99-36.95 127.79-36.95L127.79-36.95 130.59-36.95Q130.99-36.95 131.16-36.73 131.34-36.5 131.34-36.15L131.34-36.15 131.34-32.25Q131.34-31.45 130.59-31.45L130.59-31.45ZM131.14 0L127.19 0 127.19-26.7 131.14-26.7 131.14 0ZM148.44 0.3L148.44 0.3Q146.19 0.3 144.24-0.3 142.28-0.9 140.84-2.4 139.38-3.9 138.59-6.55 137.78-9.2 137.78-13.3L137.78-13.3Q137.78-17.45 138.53-20.13 139.28-22.8 140.69-24.3 142.09-25.8 144.09-26.4 146.09-27 148.53-27L148.53-27Q150.53-27 152.88-26.83 155.24-26.65 157.38-26.3L157.38-26.3 157.38-23.95 149.59-23.95Q147.03-23.95 145.28-23.1 143.53-22.25 142.63-19.93 141.74-17.6 141.74-13.2L141.74-13.2Q141.74-8.95 142.69-6.7 143.63-4.45 145.38-3.63 147.13-2.8 149.63-2.8L149.63-2.8 157.78-2.8 157.78-0.5Q156.63-0.3 155.11-0.1 153.59 0.1 151.88 0.2 150.19 0.3 148.44 0.3ZM166.63-31.45L163.83-31.45Q163.03-31.45 163.03-32.25L163.03-32.25 163.03-36.15Q163.03-36.95 163.83-36.95L163.83-36.95 166.63-36.95Q167.03-36.95 167.21-36.73 167.38-36.5 167.38-36.15L167.38-36.15 167.38-32.25Q167.38-31.45 166.63-31.45L166.63-31.45ZM167.18 0L163.23 0 163.23-26.7 167.18-26.7 167.18 0ZM185.38 0.3L185.38 0.3Q182.48 0.3 180.31-0.3 178.13-0.9 176.68-2.4 175.23-3.9 174.53-6.58 173.83-9.25 173.83-13.4L173.83-13.4Q173.83-17.6 174.53-20.28 175.23-22.95 176.68-24.43 178.13-25.9 180.31-26.48 182.48-27.05 185.38-27.05L185.38-27.05Q188.28-27.05 190.46-26.45 192.63-25.85 194.08-24.38 195.53-22.9 196.26-20.23 196.98-17.55 196.98-13.4L196.98-13.4Q196.98-9.2 196.26-6.53 195.53-3.85 194.11-2.38 192.68-0.9 190.48-0.3 188.28 0.3 185.38 0.3ZM185.38-2.95L185.38-2.95Q187.23-2.95 188.66-3.3 190.08-3.65 191.03-4.7 191.98-5.75 192.48-7.85 192.98-9.95 192.98-13.4L192.98-13.4Q192.98-16.9 192.48-18.95 191.98-21 191.03-22.05 190.08-23.1 188.66-23.45 187.23-23.8 185.38-23.8L185.38-23.8Q183.48-23.8 182.08-23.45 180.68-23.1 179.73-22.05 178.78-21 178.28-18.95 177.78-16.9 177.78-13.4L177.78-13.4Q177.78-9.95 178.28-7.85 178.78-5.75 179.73-4.7 180.68-3.65 182.08-3.3 183.48-2.95 185.38-2.95ZM211.58 0.3L211.58 0.3Q207.73 0.3 205.65-1.7 203.58-3.7 203.58-7.9L203.58-7.9 203.58-26.7 207.53-26.7 207.53-8.9Q207.53-5.55 209.05-4.38 210.58-3.2 213.33-3.2L213.33-3.2Q215.68-3.2 217.63-3.88 219.58-4.55 221.63-5.75L221.63-5.75 221.63-26.7 225.58-26.7 225.58 0 222.48 0 221.63-2.95Q219.58-1.65 217-0.68 214.43 0.3 211.58 0.3ZM242.23 0.3L242.23 0.3Q241.23 0.3 239.78 0.25 238.33 0.2 236.75 0.1 235.18 0 233.9-0.13 232.63-0.25 231.93-0.4L231.93-0.4 231.93-2.8 242.88-2.8Q244.53-2.8 245.73-3.05 246.93-3.3 247.6-4.15 248.28-5 248.28-6.7L248.28-6.7 248.28-7.9Q248.28-9.65 247.13-10.63 245.98-11.6 243.43-11.6L243.43-11.6 239.68-11.6Q237.33-11.6 235.5-12.2 233.68-12.8 232.68-14.25 231.68-15.7 231.68-18.25L231.68-18.25 231.68-19.65Q231.68-22.15 232.65-23.75 233.63-25.35 235.7-26.15 237.78-26.95 241.08-26.95L241.08-26.95Q242.48-26.95 244.3-26.85 246.13-26.75 247.88-26.58 249.63-26.4 250.73-26.2L250.73-26.2 250.73-23.8 240.43-23.8Q237.88-23.8 236.5-22.95 235.13-22.1 235.13-19.65L235.13-19.65 235.13-18.55Q235.13-17 235.78-16.23 236.43-15.45 237.6-15.2 238.78-14.95 240.33-14.95L240.33-14.95 244.13-14.95Q247.78-14.95 249.78-13.25 251.78-11.55 251.78-8.35L251.78-8.35 251.78-6.5Q251.78-3.8 250.55-2.33 249.33-0.85 247.2-0.28 245.08 0.3 242.23 0.3Z" opacity="1" transform="matrix(1,0,0,1,0,0)" fill="#4d7e3e" class="wordmark-text-0" data-fill-palette-color="primary" id="text-0"></path></svg></g></svg></g><g transform="matrix(1,0,0,1,0,60.7041705491941)"><svg viewBox="0 0 244.43135999999998 24.316008578723405" height="24.316008578723405" width="244.43135999999998"><g transform="matrix(1,0,0,1,0,0)"><svg width="244.43135999999998" viewBox="2.4 -41.4 528.7 52.599999999999994" height="24.316008578723405" data-palette-color="#c6e0bd"><path d="M6.55-2.95L6.55-34.05 2.5-34.65 2.5-37.15 16.85-37.15 16.85-34.65 11.9-34.05 11.9-2.95 24.8-3.4 27.75-11.8 30.8-11.35 29.05 0 2.4 0 2.4-2.45 6.55-2.95ZM33.95-13.95Q33.95-18.45 35.8-21.75 37.65-25.05 40.67-26.78 43.7-28.5 47.15-28.5L47.15-28.5Q53.45-28.5 56.62-24.5 59.8-20.5 59.8-14L59.8-14Q59.8-9.45 57.95-6.15 56.1-2.85 53.07-1.15 50.05 0.55 46.6 0.55L46.6 0.55Q40.3 0.55 37.12-3.45 33.95-7.45 33.95-13.95L33.95-13.95ZM46.9-2.3Q50.35-2.3 52.2-5.15 54.05-8 54.05-13.6L54.05-13.6Q54.05-19.15 52.35-22.4 50.65-25.65 46.9-25.65L46.9-25.65Q43.45-25.65 41.57-22.8 39.7-19.95 39.7-14.35L39.7-14.35Q39.7-8.8 41.45-5.55 43.2-2.3 46.9-2.3L46.9-2.3ZM62.05-25.4L62.05-27.75 73.65-27.75 73.65-25.4 70.09-24.75 75.15-10.35 77.25-4 79.05-10.15 84.09-24.75 80.7-25.4 80.7-27.75 90.84-27.75 90.84-25.4 88.25-24.75 78.59 0.4 74.34 0.4 64.3-24.75 62.05-25.4ZM105.04 0.55Q98.99 0.55 95.82-3.4 92.64-7.35 92.64-13.95L92.64-13.95Q92.64-18.3 94.29-21.6 95.94-24.9 98.92-26.7 101.89-28.5 105.69-28.5L105.69-28.5Q110.34-28.5 112.92-25.93 115.49-23.35 115.64-18.55L115.64-18.55Q115.64-15.5 115.29-13.9L115.29-13.9 98.09-13.9Q98.19-8.95 100.39-5.93 102.59-2.9 106.64-2.9L106.64-2.9Q108.64-2.9 110.82-3.63 112.99-4.35 114.19-5.35L114.19-5.35 115.14-3.15Q113.69-1.65 110.84-0.55 107.99 0.55 105.04 0.55L105.04 0.55ZM98.14-16.55L110.14-16.55Q110.29-17.6 110.29-18.7L110.29-18.7Q110.24-21.95 108.92-23.83 107.59-25.7 104.74-25.7L104.74-25.7Q101.84-25.7 100.12-23.6 98.39-21.5 98.14-16.55L98.14-16.55ZM135.79-2.9L135.79-24.45 131.09-24.45 131.09-26.75 135.79-27.7 135.79-30.05Q135.79-33.15 137.41-35.75 139.04-38.35 141.66-39.88 144.29-41.4 147.24-41.4L147.24-41.4Q148.94-41.4 150.19-40.95L150.19-40.95 150.19-35.95Q149.74-36.35 148.41-36.73 147.09-37.1 145.49-37.1L145.49-37.1Q143.14-37.1 142.06-35.88 140.99-34.65 140.99-31.65L140.99-31.65 140.99-27.7 147.89-27.7 147.89-24.45 140.99-24.45 140.99-2.85 146.54-2.45 146.54 0 131.54 0 131.54-2.45 135.79-2.9ZM151.79-13.95Q151.79-18.45 153.64-21.75 155.49-25.05 158.51-26.78 161.54-28.5 164.99-28.5L164.99-28.5Q171.29-28.5 174.46-24.5 177.64-20.5 177.64-14L177.64-14Q177.64-9.45 175.79-6.15 173.94-2.85 170.91-1.15 167.89 0.55 164.44 0.55L164.44 0.55Q158.14 0.55 154.96-3.45 151.79-7.45 151.79-13.95L151.79-13.95ZM164.74-2.3Q168.19-2.3 170.04-5.15 171.89-8 171.89-13.6L171.89-13.6Q171.89-19.15 170.19-22.4 168.49-25.65 164.74-25.65L164.74-25.65Q161.29-25.65 159.41-22.8 157.54-19.95 157.54-14.35L157.54-14.35Q157.54-8.8 159.29-5.55 161.04-2.3 164.74-2.3L164.74-2.3ZM182.18-13.95Q182.18-18.45 184.03-21.75 185.88-25.05 188.91-26.78 191.93-28.5 195.38-28.5L195.38-28.5Q201.68-28.5 204.86-24.5 208.03-20.5 208.03-14L208.03-14Q208.03-9.45 206.18-6.15 204.33-2.85 201.31-1.15 198.28 0.55 194.83 0.55L194.83 0.55Q188.53 0.55 185.36-3.45 182.18-7.45 182.18-13.95L182.18-13.95ZM195.13-2.3Q198.58-2.3 200.43-5.15 202.28-8 202.28-13.6L202.28-13.6Q202.28-19.15 200.58-22.4 198.88-25.65 195.13-25.65L195.13-25.65Q191.68-25.65 189.81-22.8 187.93-19.95 187.93-14.35L187.93-14.35Q187.93-8.8 189.68-5.55 191.43-2.3 195.13-2.3L195.13-2.3ZM223.38 0.55Q220.38 0.55 217.88-0.95 215.38-2.45 213.91-5.55 212.43-8.65 212.43-13.2L212.43-13.2Q212.43-17.45 214.18-20.95 215.93-24.45 219.21-26.48 222.48-28.5 226.93-28.5L226.93-28.5Q229.48-28.5 231.58-27.95L231.58-27.95 231.58-37.3 226.48-37.9 226.48-40.05 235.48-40.95 235.63-40.95 236.73-40.15 236.73-2.55 239.63-2.55 239.63-0.25Q238.03 0.1 236.86 0.3 235.68 0.5 234.38 0.5L234.38 0.5Q233.08 0.5 232.53 0.05 231.98-0.4 231.98-1.85L231.98-1.85 231.98-3.45Q230.58-1.75 228.31-0.6 226.03 0.55 223.38 0.55L223.38 0.55ZM225.38-3Q227.33-3 229.03-3.88 230.73-4.75 231.58-5.9L231.58-5.9 231.58-24.2Q231.18-24.8 229.71-25.28 228.23-25.75 226.58-25.75L226.58-25.75Q222.68-25.75 220.36-22.78 218.03-19.8 218.03-13.6L218.03-13.6Q218.03-8.2 220.08-5.6 222.13-3 225.38-3L225.38-3ZM249.98-7.5Q251.68-7.5 252.78-5.88 253.88-4.25 253.88-1.45L253.88-1.45Q253.88 1.4 252.98 4.05 252.08 6.7 250.73 8.58 249.38 10.45 248.08 11.2L248.08 11.2 248.03 11.2 246.33 10 246.33 9.45Q247.33 8.65 248.35 5.98 249.38 3.3 249.38 0.9L249.38 0.9Q249.38 0.15 249.1-0.33 248.83-0.8 248.23-1.45L248.23-1.45Q247.53-2.2 247.18-2.85 246.83-3.5 246.83-4.6L246.83-4.6Q246.83-5.9 247.65-6.7 248.48-7.5 249.73-7.5L249.73-7.5 249.98-7.5ZM274.92-2.85L274.92-37.3 270.72-37.85 270.72-40 278.87-40.95 278.97-40.95 280.07-40.2 280.07-28.6 279.87-24.35Q281.47-25.8 284.27-27.1 287.07-28.4 289.92-28.4L289.92-28.4Q293.07-28.4 294.82-27.2 296.57-26 297.27-23.53 297.97-21.05 297.97-16.85L297.97-16.85 297.97-2.9 301.47-2.45 301.47 0 289.52 0 289.52-2.45 292.77-2.9 292.77-16.9Q292.77-19.85 292.37-21.53 291.97-23.2 290.87-24.03 289.77-24.85 287.57-24.85L287.57-24.85Q285.77-24.85 283.72-23.95 281.67-23.05 280.12-21.85L280.12-21.85 280.12-2.9 283.57-2.45 283.57 0 271.92 0 271.92-2.45 274.92-2.85ZM305.17-7.5Q305.17-12.2 309.87-14.43 314.57-16.65 321.77-16.8L321.77-16.8 321.77-18.2Q321.77-20.55 321.27-21.9 320.77-23.25 319.55-23.88 318.32-24.5 316.07-24.5L316.07-24.5Q313.52-24.5 311.5-23.78 309.47-23.05 307.47-22L307.47-22 306.22-24.6Q306.87-25.15 308.62-26.05 310.37-26.95 312.67-27.65 314.97-28.35 317.27-28.35L317.27-28.35Q320.82-28.35 322.9-27.38 324.97-26.4 325.87-24.25 326.77-22.1 326.77-18.5L326.77-18.5 326.77-2.45 329.72-2.45 329.72-0.25Q328.72 0 327.2 0.25 325.67 0.5 324.52 0.5L324.52 0.5Q323.12 0.5 322.62 0.08 322.12-0.35 322.12-1.8L322.12-1.8 322.12-3.45Q320.62-1.95 318.45-0.7 316.27 0.55 313.52 0.55L313.52 0.55Q309.92 0.55 307.55-1.53 305.17-3.6 305.17-7.5L305.17-7.5ZM315.67-2.85Q316.97-2.85 318.67-3.65 320.37-4.45 321.77-5.55L321.77-5.55 321.77-14.15Q316.32-14.15 313.55-12.48 310.77-10.8 310.77-8.1L310.77-8.1Q310.77-5.4 312.1-4.13 313.42-2.85 315.67-2.85L315.67-2.85ZM341.77 0.5Q338.92 0.5 337.52-0.8 336.12-2.1 336.12-5.25L336.12-5.25 336.12-24.45 332.52-24.45 332.52-26.7Q332.77-26.75 333.92-27.05 335.07-27.35 335.47-27.6L335.47-27.6Q336.27-28.05 336.72-29.4L336.72-29.4Q337.12-30.35 337.67-32.45 338.22-34.55 338.32-34.95L338.32-34.95 341.27-34.95 341.37-27.75 349.72-27.75 349.72-24.45 341.37-24.45 341.37-9.1Q341.37-6.25 341.54-5.1 341.72-3.95 342.29-3.6 342.87-3.25 344.27-3.25L344.27-3.25Q345.62-3.25 347.24-3.6 348.87-3.95 349.77-4.35L349.77-4.35 350.52-2.1Q349.32-1.2 346.64-0.35 343.97 0.5 341.77 0.5L341.77 0.5ZM365.87 0.55Q359.82 0.55 356.64-3.4 353.47-7.35 353.47-13.95L353.47-13.95Q353.47-18.3 355.12-21.6 356.77-24.9 359.74-26.7 362.72-28.5 366.52-28.5L366.52-28.5Q371.17-28.5 373.74-25.93 376.32-23.35 376.47-18.55L376.47-18.55Q376.47-15.5 376.12-13.9L376.12-13.9 358.92-13.9Q359.02-8.95 361.22-5.93 363.42-2.9 367.47-2.9L367.47-2.9Q369.47-2.9 371.64-3.63 373.82-4.35 375.02-5.35L375.02-5.35 375.97-3.15Q374.52-1.65 371.67-0.55 368.82 0.55 365.87 0.55L365.87 0.55ZM358.97-16.55L370.97-16.55Q371.12-17.6 371.12-18.7L371.12-18.7Q371.07-21.95 369.74-23.83 368.42-25.7 365.57-25.7L365.57-25.7Q362.67-25.7 360.94-23.6 359.22-21.5 358.97-16.55L358.97-16.55ZM390.01-25.4L390.01-27.75 401.66-27.75 401.66-25.4 397.86-24.8 402.01-10.1 403.46-3.75 404.91-10.15 409.71-27.75 414.61-27.75 419.56-10.15 421.01-3.7 422.61-10.1 426.66-24.75 422.86-25.4 422.86-27.75 433.01-27.75 433.01-25.4 430.36-24.75 422.61 0.4 417.91 0.4 412.61-17.25 411.31-23.45 410.26-17.25 405.21 0.4 400.56 0.4 392.56-24.8 390.01-25.4ZM434.56-7.5Q434.56-12.2 439.26-14.43 443.96-16.65 451.16-16.8L451.16-16.8 451.16-18.2Q451.16-20.55 450.66-21.9 450.16-23.25 448.93-23.88 447.71-24.5 445.46-24.5L445.46-24.5Q442.91-24.5 440.88-23.78 438.86-23.05 436.86-22L436.86-22 435.61-24.6Q436.26-25.15 438.01-26.05 439.76-26.95 442.06-27.65 444.36-28.35 446.66-28.35L446.66-28.35Q450.21-28.35 452.28-27.38 454.36-26.4 455.26-24.25 456.16-22.1 456.16-18.5L456.16-18.5 456.16-2.45 459.11-2.45 459.11-0.25Q458.11 0 456.58 0.25 455.06 0.5 453.91 0.5L453.91 0.5Q452.51 0.5 452.01 0.08 451.51-0.35 451.51-1.8L451.51-1.8 451.51-3.45Q450.01-1.95 447.83-0.7 445.66 0.55 442.91 0.55L442.91 0.55Q439.31 0.55 436.93-1.53 434.56-3.6 434.56-7.5L434.56-7.5ZM445.06-2.85Q446.36-2.85 448.06-3.65 449.76-4.45 451.16-5.55L451.16-5.55 451.16-14.15Q445.71-14.15 442.93-12.48 440.16-10.8 440.16-8.1L440.16-8.1Q440.16-5.4 441.48-4.13 442.81-2.85 445.06-2.85L445.06-2.85ZM466.36-7.9L467.26-4Q467.76-3.25 469.38-2.65 471.01-2.05 472.81-2.05L472.81-2.05Q475.66-2.05 477.01-3.15 478.36-4.25 478.36-6.2L478.36-6.2Q478.36-7.55 477.51-8.55 476.66-9.55 475.13-10.33 473.61-11.1 470.76-12.2L470.76-12.2Q466.91-13.65 465.13-15.68 463.36-17.7 463.36-21L463.36-21Q463.36-23.2 464.68-24.85 466.01-26.5 468.33-27.43 470.66-28.35 473.51-28.35L473.51-28.35Q475.81-28.35 477.53-28 479.26-27.65 480.31-27.3 481.36-26.95 481.71-26.85L481.71-26.85 481.71-20.65 478.66-20.65 477.66-24.35Q477.36-24.95 476.06-25.38 474.76-25.8 473.16-25.8L473.16-25.8Q470.91-25.8 469.53-24.8 468.16-23.8 468.16-22.1L468.16-22.1Q468.16-20.6 468.88-19.63 469.61-18.65 470.71-18.05 471.81-17.45 473.71-16.65L473.71-16.65 474.71-16.25Q477.51-15.15 479.26-14.15 481.01-13.15 482.18-11.53 483.36-9.9 483.36-7.55L483.36-7.55Q483.36-3.85 480.48-1.65 477.61 0.55 472.61 0.55L472.61 0.55Q470.16 0.55 467.48-0.13 464.81-0.8 463.11-1.5L463.11-1.5 463.11-7.9 466.36-7.9ZM496.4 0.5Q493.55 0.5 492.15-0.8 490.75-2.1 490.75-5.25L490.75-5.25 490.75-24.45 487.15-24.45 487.15-26.7Q487.4-26.75 488.55-27.05 489.7-27.35 490.1-27.6L490.1-27.6Q490.9-28.05 491.35-29.4L491.35-29.4Q491.75-30.35 492.3-32.45 492.85-34.55 492.95-34.95L492.95-34.95 495.9-34.95 496-27.75 504.35-27.75 504.35-24.45 496-24.45 496-9.1Q496-6.25 496.18-5.1 496.35-3.95 496.93-3.6 497.5-3.25 498.9-3.25L498.9-3.25Q500.25-3.25 501.88-3.6 503.5-3.95 504.4-4.35L504.4-4.35 505.15-2.1Q503.95-1.2 501.28-0.35 498.6 0.5 496.4 0.5L496.4 0.5ZM520.5 0.55Q514.45 0.55 511.28-3.4 508.1-7.35 508.1-13.95L508.1-13.95Q508.1-18.3 509.75-21.6 511.4-24.9 514.38-26.7 517.35-28.5 521.15-28.5L521.15-28.5Q525.8-28.5 528.38-25.93 530.95-23.35 531.1-18.55L531.1-18.55Q531.1-15.5 530.75-13.9L530.75-13.9 513.55-13.9Q513.65-8.95 515.85-5.93 518.05-2.9 522.1-2.9L522.1-2.9Q524.1-2.9 526.28-3.63 528.45-4.35 529.65-5.35L529.65-5.35 530.6-3.15Q529.15-1.65 526.3-0.55 523.45 0.55 520.5 0.55L520.5 0.55ZM513.6-16.55L525.6-16.55Q525.75-17.6 525.75-18.7L525.75-18.7Q525.7-21.95 524.38-23.83 523.05-25.7 520.2-25.7L520.2-25.7Q517.3-25.7 515.58-23.6 513.85-21.5 513.6-16.55L513.6-16.55Z" opacity="1" transform="matrix(1,0,0,1,0,0)" fill="#c6e0bd" class="slogan-text-1" data-fill-palette-color="secondary" id="text-1"></path></svg></g></svg></g></svg></g></svg></g></svg></g></svg></g></svg></g><path d="M175.207 75.09L175.207 14.403 393.6 14.403 393.6 232.797 175.207 232.797 175.207 172.11 179.636 172.11 179.636 228.368 389.171 228.368 389.171 18.832 179.636 18.832 179.636 75.09Z" fill="#4d7e3e" stroke="transparent" data-fill-palette-color="primary"></path></svg></g><defs></defs></svg><rect width="395.52" height="247.2" fill="none" stroke="none" visibility="hidden"></rect></g></svg></g></svg>